<svg version="1.1" id="Layer_1" xmlns="http://www.w3.org/2000/svg" xmlns:xlink="http://www.w3.org/1999/xlink" x="0px" y="0px"
	 width="100%" viewBox="0 0 544 560" enable-background="new 0 0 544 560" xml:space="preserve">
<path fill="#000000" opacity="1.000000" stroke="none" 
	d="
M89.041672,458.368774 
	C85.140900,458.375641 81.717682,458.375641 78.114120,458.375641 
	C78.531029,455.347656 80.616028,454.622528 82.143494,453.569763 
	C123.180885,425.285889 162.903244,395.244080 201.755600,364.046051 
	C213.185959,354.867554 224.442444,345.451447 234.123550,334.359467 
	C238.253830,329.627228 241.101578,324.166473 241.694000,317.820190 
	C242.677475,307.285095 238.427933,299.367523 229.264755,294.119171 
	C220.249359,288.955475 210.569916,285.188812 200.670807,282.351929 
	C179.571365,276.305237 165.059448,262.732361 155.021881,243.870819 
	C152.403442,238.950516 149.002502,235.477600 144.165054,232.747314 
	C131.303650,225.488190 121.014572,215.407242 113.368706,202.731522 
	C112.306480,200.970520 110.684906,199.284241 111.342148,196.231216 
	C122.205246,198.519638 133.146301,199.871582 144.457504,200.097427 
	C111.727600,185.802765 90.415596,161.743744 80.341148,126.055702 
	C93.448753,131.585571 103.916473,139.800430 116.842270,143.368927 
	C93.734413,111.675613 80.398521,78.769730 83.239975,60.648922 
	C85.371025,60.068031 86.119377,61.881912 87.164986,63.027145 
	C107.095428,84.856491 130.390182,102.365044 155.383362,118.047791 
	C192.944870,141.616928 233.356415,159.318329 273.627777,177.359467 
	C288.472992,184.009995 299.893219,193.846191 307.579773,208.370499 
	C313.103241,218.807541 319.839935,228.543839 327.162384,237.898590 
	C342.285461,257.218964 363.627106,250.647263 375.328644,238.502121 
	C377.399780,236.352432 377.375549,234.796432 375.281433,232.651978 
	C372.166504,229.462036 369.409943,225.938934 368.992920,220.790665 
	C375.141907,220.055222 381.078949,220.749741 386.997375,220.064514 
	C397.442566,218.855194 407.391327,215.323776 417.886749,214.395187 
	C432.287140,213.121063 444.175842,217.620071 453.257538,228.808823 
	C456.310822,232.570541 459.612152,235.251999 464.281738,236.812759 
	C475.741608,240.643143 483.382019,248.473663 487.105713,260.019684 
	C485.696655,262.138611 483.579468,262.044067 481.668030,262.211273 
	C461.239075,263.998260 445.620514,274.144653 433.483307,290.131836 
	C426.408875,299.450256 421.085693,309.850464 415.612366,320.157349 
	C404.144836,341.752136 389.735840,361.025238 369.460693,375.148621 
	C348.171875,389.978088 324.116364,397.142944 298.433899,399.363708 
	C282.862488,400.710175 267.144135,399.863312 251.683487,403.009155 
	C230.913803,407.235260 213.792892,417.116547 201.036743,434.246552 
	C195.266174,441.995728 189.627808,449.864655 183.478531,457.306610 
	C162.997009,482.093689 136.305283,494.532654 104.425003,496.379730 
	C96.792107,496.821930 89.164612,497.278809 81.109398,495.280365 
	C99.042000,481.460968 117.292137,468.106079 134.660507,451.643280 
	C118.892387,454.560608 104.412292,457.973511 89.041672,458.368774 
M154.428604,170.206879 
	C138.777847,165.010742 123.127083,159.814606 106.460106,154.281097 
	C107.639923,156.088577 108.124855,156.938446 108.710175,157.712418 
	C120.341881,173.093048 136.223160,182.774353 153.500214,190.254883 
	C176.723389,200.309952 200.337341,209.429474 223.885406,218.705460 
	C236.057327,223.500183 249.020798,226.798630 259.403717,235.456116 
	C260.375671,236.266571 261.483337,236.201385 262.696442,236.153824 
	C273.249542,235.739929 279.289032,242.663269 277.167542,252.985611 
	C276.684967,255.333679 276.943604,257.103210 278.183258,259.056396 
	C283.718018,267.777039 289.203003,276.530304 294.596466,285.338837 
	C295.989166,287.613373 297.665039,288.967224 300.356964,289.576660 
	C308.484558,291.416626 312.957855,298.501343 310.942871,305.900421 
	C309.110870,312.627441 302.013824,316.750214 295.331635,314.969086 
	C288.124268,313.047974 284.371490,305.884918 286.793335,297.941101 
	C287.711609,294.929199 287.400818,292.528625 285.769470,289.951019 
	C280.958893,282.350128 276.218292,274.703369 271.568237,267.003326 
	C269.817352,264.104004 267.707611,262.515015 264.114868,262.049194 
	C256.829132,261.104553 252.428101,255.989700 252.820679,248.615738 
	C253.092010,243.519394 250.865463,241.072220 246.674759,239.062485 
	C234.940842,233.435303 222.622574,229.226074 210.739151,223.990143 
	C191.034714,215.308197 170.602859,210.910660 149.017899,212.347076 
	C146.183273,212.535690 143.325256,212.372971 140.478058,212.372971 
	C143.611816,216.140396 147.260925,218.093079 150.979294,219.932663 
	C165.332489,227.033630 180.245193,232.800537 195.236206,238.363297 
	C210.688858,244.097321 226.466873,249.077255 241.040253,256.905182 
	C256.982513,265.468353 264.486603,279.279419 265.365936,297.181122 
	C266.122772,312.589447 259.874146,325.244263 249.810822,335.964081 
	C237.914551,348.636414 226.429092,361.466919 218.194946,376.936646 
	C215.778702,381.476135 212.751175,385.713623 209.774780,389.927765 
	C190.594330,417.084229 165.844727,439.037048 142.136276,461.942047 
	C135.434814,468.416443 128.128159,474.264404 120.510406,480.913483 
	C121.963829,480.816406 122.461197,480.819031 122.946144,480.742676 
	C123.765831,480.613708 124.587646,480.474182 125.391357,480.271057 
	C148.193970,474.507324 166.090164,461.737885 179.285355,442.347412 
	C189.218475,427.750580 198.738205,412.861938 208.998352,398.500702 
	C222.529694,379.560760 238.774002,363.086151 256.807281,348.373901 
	C261.436310,344.597412 266.616333,342.294983 272.576660,341.402557 
	C281.385193,340.083740 290.213654,341.263672 299.022278,340.776550 
	C305.608582,340.412262 310.447235,336.645020 315.425262,332.978882 
	C318.798920,330.494263 318.892517,327.082825 319.282135,323.309998 
	C320.069122,315.690033 327.088470,310.598724 334.141022,311.828003 
	C340.781342,312.985413 345.617188,319.850769 344.576233,326.642639 
	C343.374786,334.481659 336.870392,339.395416 329.126587,337.753174 
	C325.810211,337.049835 323.691925,338.121735 321.575714,340.212097 
	C313.637024,348.053711 303.849152,351.091553 292.939270,351.146423 
	C288.607300,351.168213 284.262787,351.306702 279.945557,351.041138 
	C273.051361,350.617004 267.201385,352.898102 261.987640,357.210815 
	C248.607254,368.278839 236.051849,380.176849 225.284088,393.855194 
	C224.268555,395.145203 222.662048,396.350159 223.237366,398.917511 
	C232.708664,394.711029 242.966370,393.225311 250.048874,384.814850 
	C254.088913,380.017303 259.401672,376.310272 263.978333,371.941467 
	C270.609802,365.611267 278.459412,362.807190 287.560486,362.893066 
	C293.378235,362.947937 299.180573,362.689850 304.971741,361.716644 
	C324.893890,358.368713 342.446625,350.331024 357.093597,336.225159 
	C359.783112,333.635040 361.046783,331.005646 360.606995,326.999603 
	C359.618866,317.998077 365.108673,312.043060 374.245697,311.759338 
	C376.903656,311.676788 378.508850,310.599304 380.072113,308.653839 
	C384.139404,303.592163 388.207275,298.513092 392.575195,293.714233 
	C406.552551,278.358002 423.855316,268.016968 443.059174,260.550079 
	C450.546661,257.638763 458.062775,254.806717 466.544861,252.625229 
	C463.184845,249.713882 460.188599,248.770859 457.114807,248.082275 
	C452.364563,247.018158 448.883118,244.743668 446.216949,240.305664 
	C441.318817,232.152496 434.013000,227.292603 424.103210,227.019180 
	C415.480774,226.781250 407.240448,228.642197 399.090057,231.159775 
	C397.945190,231.513412 396.907410,231.898926 396.443420,233.170288 
	C394.240295,239.207092 389.361603,243.191422 384.950897,247.366364 
	C365.273285,265.992126 334.484711,271.640015 314.081268,241.895981 
	C307.286041,231.989929 300.636230,222.035675 294.715271,211.616379 
	C289.877411,203.102997 283.690002,196.264038 274.665375,192.124039 
	C265.734161,188.026855 257.021881,183.430695 247.988449,179.581680 
	C198.005173,158.284515 150.172577,133.202682 106.817116,100.141670 
	C106.213562,99.681427 105.594147,98.936287 104.616844,99.599594 
	C104.616844,99.902130 104.542175,100.241440 104.632111,100.529312 
	C104.830116,101.163109 105.087242,101.781815 105.361870,102.387817 
	C118.455849,131.281158 140.969711,150.455872 168.950500,163.975586 
	C170.593948,164.769669 172.443542,165.185211 173.991699,166.117966 
	C176.948364,167.899338 177.055557,170.766602 176.015823,173.612579 
	C174.872772,176.741318 172.399185,176.515945 169.788925,175.579224 
	C164.930130,173.835602 160.054459,172.139053 154.428604,170.206879 
M380.387756,348.884796 
	C398.922089,329.441376 407.727570,303.872528 422.653992,282.130707 
	C409.107819,289.982666 398.465424,300.796631 389.264496,313.197906 
	C386.607361,316.779236 384.964691,320.247314 385.237610,325.007782 
	C385.661926,332.407959 379.797180,338.339264 372.519623,338.014221 
	C369.322296,337.871429 367.652893,339.153900 365.737732,341.093994 
	C353.452484,353.539093 338.925385,362.224213 322.277466,367.682312 
	C309.726837,371.797119 296.803070,372.305786 283.848694,373.158051 
	C273.906403,373.812164 268.873901,381.523895 262.119324,387.679535 
	C264.994843,389.171417 267.076630,388.884552 268.946014,388.566437 
	C278.520081,386.937073 288.212097,387.793121 297.840973,386.893555 
	C329.634003,383.923309 357.710602,373.205627 380.387756,348.884796 
M249.885513,296.711975 
	C251.355652,298.697571 251.518280,301.639130 254.534302,303.365295 
	C255.427338,297.790436 255.152328,292.882263 254.082687,288.024719 
	C251.019226,274.112762 240.913803,267.086823 228.633286,262.261871 
	C211.436066,255.505173 193.630371,250.687180 175.854599,245.779297 
	C174.636169,245.442871 173.335449,244.814453 172.163452,246.110718 
	C172.250015,246.593826 172.240021,247.117981 172.442490,247.540237 
	C172.799561,248.284882 173.243942,248.997574 173.725067,249.671295 
	C180.199539,258.737701 188.607956,265.214905 199.221802,268.774475 
	C206.309219,271.151398 213.488647,273.312500 220.415619,276.096008 
	C231.555603,280.572449 242.573730,285.407104 249.885513,296.711975 
M195.402252,385.516602 
	C171.029419,403.902374 146.656586,422.288116 121.106445,441.562012 
	C143.245941,437.022278 161.483704,428.527283 175.254501,411.863983 
	C180.229309,405.844299 185.410461,399.993744 190.326508,393.927490 
	C192.445145,391.313141 195.010895,388.907898 195.402252,385.516602 
M301.600311,301.735565 
	C300.852905,299.589386 299.349579,298.925415 297.318329,299.790405 
	C296.205780,300.264160 295.500916,301.296570 295.569885,302.570251 
	C295.650177,304.053711 296.562103,305.135895 297.954102,305.400909 
	C300.194794,305.827515 301.323853,304.544739 301.600311,301.735565 
M332.952271,327.649841 
	C334.878479,326.749969 335.657074,325.320129 334.781982,323.293854 
	C334.301147,322.180542 333.402924,321.409515 332.088104,321.624969 
	C330.666229,321.857910 329.709381,322.812531 329.427643,324.175018 
	C328.968842,326.394165 330.056976,327.569122 332.952271,327.649841 
M264.115204,252.078186 
	C266.120361,252.841599 267.260284,251.899460 267.728546,250.060730 
	C268.067627,248.729172 267.763794,247.437134 266.453583,246.680405 
	C265.358795,246.048126 264.189209,246.144638 263.315735,247.035278 
	C261.771454,248.609955 262.036316,250.216156 264.115204,252.078186 
M370.211121,325.214905 
	C370.466614,327.123505 371.382538,328.344818 373.476379,327.956909 
	C374.894257,327.694153 375.783661,326.681396 376.042664,325.260468 
	C376.281128,323.952240 375.634003,322.917480 374.471558,322.486542 
	C372.459259,321.740509 370.910950,322.307220 370.211121,325.214905 
z"/>
<path fill="#000000" opacity="1.000000" stroke="none" 
	d="
M289.264740,229.784607 
	C297.743774,244.601257 306.340363,258.874878 319.936859,269.236176 
	C322.184753,270.949188 324.565094,272.496368 326.943726,274.027771 
	C330.248108,276.155243 333.514465,277.239410 337.740265,276.039581 
	C343.420929,274.426575 348.314697,276.728851 351.299408,281.916321 
	C352.936310,284.761261 354.860931,285.790405 358.079956,285.772522 
	C365.737762,285.729980 372.874939,283.916748 379.741852,280.626801 
	C382.856903,279.134338 386.135406,278.833618 387.804321,282.660522 
	C389.449402,286.432770 387.641235,289.109985 384.101868,290.662445 
	C382.279510,291.461792 380.376007,292.111908 378.459778,292.655212 
	C371.864929,294.524994 365.181305,295.873901 358.270874,295.407532 
	C354.637268,295.162323 351.768311,296.004578 348.871185,298.704926 
	C342.038666,305.073212 331.844574,302.204620 329.002991,292.962463 
	C327.617401,288.455963 325.241150,285.705048 321.490784,283.207458 
	C305.780579,272.745087 293.833832,258.843506 284.919800,242.249374 
	C282.714783,238.144577 280.248962,234.176224 277.816528,230.198074 
	C274.084869,224.095169 269.092865,219.333252 262.685883,216.048859 
	C245.328262,207.150894 227.517151,199.284058 209.323151,192.259659 
	C207.244339,191.457077 205.684830,191.701981 203.718231,192.662750 
	C196.264633,196.304169 189.010101,193.637253 185.902664,186.361816 
	C183.134995,179.881897 186.461212,172.099197 193.125046,169.462799 
	C199.980286,166.750671 207.174805,170.313522 209.514572,178.058258 
	C210.475082,181.237534 212.452316,182.534653 215.157959,183.706345 
	C231.196625,190.651932 247.432495,197.117081 263.139679,204.862610 
	C274.499176,210.464188 283.323761,218.217575 289.264740,229.784607 
M199.827515,183.381073 
	C201.134583,181.468277 200.594254,179.922058 198.762375,178.800980 
	C197.667450,178.130920 196.522858,178.400848 195.578384,179.270981 
	C194.497177,180.267059 194.043457,181.528427 194.791840,182.831039 
	C195.877838,184.721344 197.458954,185.171982 199.827515,183.381073 
M341.175934,285.876526 
	C338.169189,285.814636 337.369446,287.710907 338.039520,290.082733 
	C338.583710,292.008911 340.498383,292.439117 342.041260,291.291290 
	C344.264832,289.637115 344.084167,287.728088 341.175934,285.876526 
z"/>
<path fill="#000000" opacity="1.000000" stroke="none" 
	d="
M423.887878,236.924866 
	C430.062592,233.575668 435.286377,235.320450 436.218689,240.777557 
	C436.821167,244.304199 436.026978,247.472977 432.618286,249.326462 
	C429.478882,251.033524 426.316772,250.624359 423.931519,248.081512 
	C420.775665,244.717178 420.893066,240.921738 423.887878,236.924866 
z"/>
</svg>