<svg width="79" height="79" viewBox="0 0 79 79" fill="none" xmlns="http://www.w3.org/2000/svg">
<g clip-path="url(#clip0_15898_33320)">
<path d="M38.601 34.8047H35.7485V43.2101H38.601C40.1788 43.2101 40.9678 42.8461 41.6354 42.2087C42.4243 41.4198 42.8795 40.4792 42.8795 39.0529C42.8795 37.7178 42.485 36.7467 41.7568 35.9578C41.0892 35.2295 40.3003 34.8047 38.601 34.8047Z" fill="#2F2F2F"/>
<path d="M39.1776 0C17.6632 0 0.154297 17.5089 0.154297 39.0233C0.154297 60.5377 17.6632 78.0466 39.1776 78.0466C60.692 78.0466 78.2008 60.5377 78.2008 39.0233C78.2008 17.5089 60.692 0 39.1776 0ZM21.0011 47.1557C15.8729 47.1557 12.4743 43.484 12.4743 39.0233C12.4743 34.5626 15.9032 30.9213 20.8797 30.9213C23.7018 30.9213 26.5542 32.0136 28.5266 33.5612L26.0687 36.2315C24.6424 35.0481 22.7914 34.3805 21.3956 34.3805C18.5735 34.3805 16.7225 36.5047 16.7225 39.0536C16.7225 41.6026 18.6039 43.7267 21.5169 43.7267C23.3073 43.7267 25.1583 42.6646 26.5239 41.4205L29.0121 44.0302C27.1611 45.6688 24.3694 47.1557 21.0011 47.1557ZM44.9734 44.4854C43.6383 45.7902 41.7265 46.6701 38.692 46.6701H31.6521V31.3764H38.692C41.5444 31.3764 43.6686 32.1654 45.0948 33.6826C46.3996 35.0785 47.1279 36.9295 47.1279 39.0233C47.1279 41.1171 46.3996 43.1198 44.9734 44.4854ZM61.663 46.6701L56.4437 40.0853L54.5927 41.8453V46.6701H50.4658V31.3764H54.5927V37.1116L60.6313 31.3764H65.8202L59.3264 37.4454L66.7609 46.6701H61.663Z" fill="#2F2F2F"/>
<path d="M73.0423 73.2222L72.5872 74.0111H72.4354L71.9803 73.2525V74.1628H71.6465V72.585H71.9499L72.5264 73.5559L73.103 72.585H73.4065V74.1628H73.0726L73.0423 73.2222Z" fill="white"/>
</g>
<defs>
<clipPath id="clip0_15898_33320">
<rect width="79" height="79" fill="white"/>
</clipPath>
</defs>
</svg>
