<svg width="73" height="73" viewBox="0 0 73 73" fill="none" xmlns="http://www.w3.org/2000/svg">
<g clip-path="url(#clip0_15898_33329)">
<path d="M36.5 71.6339C55.8845 71.6339 71.5984 55.9039 71.5984 36.5001C71.5984 17.0962 55.8845 1.36621 36.5 1.36621C17.1159 1.36621 1.40186 17.0962 1.40186 36.5001C1.40186 55.9039 17.1159 71.6339 36.5 71.6339Z" fill="white"/>
<path d="M36.5066 0C16.341 0 0 16.341 0 36.5C0 56.659 16.341 73 36.5 73C56.659 73 73 56.659 73 36.5C73 16.341 56.6655 0 36.5066 0ZM29.9263 51.5212H11.1386L15.974 34.3366C17.0492 30.583 20.5325 27.8981 24.8334 27.3573H33.9568L32.0767 34.0727H24.2925C23.4878 34.0727 22.6765 34.6071 22.4061 35.4119L19.7212 44.8056H30.1902C31.2655 44.8056 31.7999 44.2712 32.0703 43.4664L38.5152 19.8435H45.2308L38.5152 44.8121C37.4399 49.3706 33.4159 51.5212 29.9263 51.5212ZM39.8675 51.5212L48.4563 20.1075H55.4358L48.4563 44.8121C47.381 49.3706 43.3569 51.5212 39.8675 51.5212ZM61.0692 34.6071H54.3605L56.2407 27.8981H62.9494L61.0692 34.6071Z" fill="#1D3E74"/>
</g>
<defs>
<clipPath id="clip0_15898_33329">
<rect width="73" height="73" fill="white"/>
</clipPath>
</defs>
</svg>
