<svg width="163" height="32" viewBox="0 0 163 32" fill="none" xmlns="http://www.w3.org/2000/svg">
<g clip-path="url(#clip0_15898_33333)">
<path fill-rule="evenodd" clip-rule="evenodd" d="M162.361 25.2868C162.361 26.1923 161.14 26.37 160.435 26.3631C157.701 26.335 154.97 26.3857 152.239 26.3631C148.926 26.3344 146.324 24.9546 144.356 22.4408C144.179 22.2149 143.953 22.0259 143.747 21.8206C143.687 21.8419 143.624 21.8638 143.564 21.8864C143.542 22.1223 143.507 22.3588 143.507 22.596C143.5 23.4883 143.524 24.3814 143.507 25.2724C143.488 26.0834 143.173 26.3525 142.32 26.3626C141.704 26.3688 141.088 26.3806 140.476 26.3963C139.802 26.4145 139.471 26.1591 139.398 25.5309C139.37 25.3031 139.389 25.0734 139.389 24.8419C139.389 22.2656 139.431 19.6912 139.375 17.1142C139.327 14.8771 138.351 13.0598 136.271 11.9154C132.943 10.0868 128.492 11.8002 127.818 16.0222C127.6 17.3983 127.659 18.8151 127.642 20.215C127.622 21.7957 127.659 23.377 127.672 24.9577C127.677 26.1178 127.432 26.3562 126.227 26.3582C125.8 26.3582 125.371 26.3626 124.941 26.36C123.851 26.3562 123.584 26.0953 123.587 25.0346C123.587 22.459 123.609 19.882 123.588 17.3076C123.574 15.6756 123.062 14.1906 121.872 12.976C118.892 9.92848 113.702 10.9586 112.22 14.9134C111.928 15.6906 111.773 16.5492 111.756 17.3739C111.7 19.897 111.74 22.422 111.746 24.9482C111.75 26.0897 111.481 26.3569 110.301 26.3513C109.816 26.3513 109.336 26.3631 108.854 26.3513C108.108 26.3344 107.802 26.049 107.731 25.3319C107.73 25.3081 107.728 25.2818 107.728 25.2562C107.734 22.2206 107.654 19.1843 107.786 16.1543C107.834 15.0179 108.319 13.8809 108.706 12.7777C109.38 10.8615 110.958 9.65568 112.688 8.68952C116.7 6.44985 121.585 7.16762 124.807 10.3716C125.461 11.0236 125.649 11.0223 126.271 10.3653C127.888 8.66632 129.904 7.74832 132.29 7.48425C136.915 6.97486 140.777 9.48424 142.42 12.7001C142.532 12.9197 142.682 13.123 142.904 13.4791C143.151 13.0868 143.33 12.8252 143.49 12.5493C145.003 9.96296 147.255 8.29152 150.284 7.58687C154.458 6.61442 162.36 9.34656 162.36 14.8827C162.361 16.9109 162.361 25.0397 162.361 25.2868ZM156.596 22.474C157.675 22.4264 158.142 22.0791 158.186 21.051C158.256 19.3539 158.351 17.6318 158.146 15.9541C157.806 13.2119 155.199 11.1613 152.369 11.175C149.531 11.1901 146.857 13.4103 146.457 16.0855C146.047 18.7963 147.784 21.4414 150.619 22.1886C152.12 22.6505 155.821 22.5066 156.596 22.474Z" fill="#CDDC39"/>
<path fill-rule="evenodd" clip-rule="evenodd" d="M79.5694 22.2633C79.5694 23.307 79.5714 24.3514 79.5694 25.3946C79.5674 26.2857 79.3722 26.4922 78.4535 26.4922C75.4526 26.4941 72.4536 26.4829 69.4541 26.4803C64.1405 26.4765 60.1025 22.2176 59.8147 17.6576C59.4525 11.8949 64.1353 7.99128 68.812 7.63585C72.8447 7.32797 75.9244 8.88863 78.1557 12.055C78.4351 12.4537 78.6841 12.8736 78.9654 13.3141C79.4774 12.6201 79.9407 11.9718 80.4278 11.341C84.3995 6.18468 93.2402 6.23224 96.9177 12.2565C97.6454 13.4455 97.6496 13.4229 98.3889 12.3016C100.637 8.89303 103.906 7.38741 108.095 7.62584C108.823 7.66964 109.082 7.87488 109.077 8.48191C109.069 9.44495 108.997 10.4061 108.944 11.4493C108.305 11.4493 107.697 11.4618 107.088 11.4493C104.023 11.3898 101.21 13.7202 101.2 16.9192C101.193 19.5186 101.168 22.1187 101.2 24.7181C101.219 26.3495 101.104 26.4978 99.3653 26.4935C95.6163 26.4853 91.8631 26.4853 88.1149 26.4734C84.8801 26.4616 82.1155 25.2438 80.178 22.8145C79.9999 22.5912 79.9756 22.3283 79.7515 22.1393C79.6903 22.1806 79.6292 22.222 79.5694 22.2633ZM74.7921 22.6431C75.4118 22.6305 75.6846 22.4234 75.6794 21.8884C75.6576 20.0067 75.7602 18.1031 75.5104 16.2458C75.0563 12.9224 71.9726 10.7953 68.2198 11.5926C65.8374 12.0989 63.6258 14.4642 63.7948 17.4192C63.9334 19.8647 65.8985 22.0799 68.5458 22.4973C69.6986 22.6769 73.8811 22.6637 74.7921 22.6431ZM94.2291 17.1476C94.3618 13.9611 91.4665 11.2528 88.0284 11.4293C85.2271 11.5707 82.7556 13.6901 82.4697 16.3609C82.1621 19.2464 84.0332 21.9229 86.8596 22.4641C88.8358 22.8433 90.5591 22.7269 92.8503 22.6837C93.8098 22.5943 94.1686 22.3227 94.2291 21.4153C94.2829 20.6043 94.2089 17.682 94.2291 17.1476Z" fill="#EF6D22"/>
<path fill-rule="evenodd" clip-rule="evenodd" d="M45.0191 8.41088C45.0191 10.655 45.0191 12.8996 45.0191 15.1442C45.0191 15.3738 45.0028 15.6048 45.0277 15.8319C45.1053 16.5197 45.4313 16.7293 46.0438 16.3714C47.5567 15.4871 49.2044 15.1986 50.9433 15.1123C52.4398 15.0391 53.8352 14.6267 54.9761 13.6205C56.1249 12.6123 56.6658 11.3514 56.7394 9.8896C56.7565 9.50976 56.7204 9.12368 56.7493 8.74256C56.813 7.95598 57.1495 7.66062 57.9776 7.6287C58.4574 7.61243 58.9378 7.6287 59.4188 7.6287C60.5151 7.6287 60.8713 8.04856 60.8713 8.76136C60.8372 9.82264 60.7117 10.8958 60.4763 11.9327C60.1313 13.4584 59.3111 14.7718 58.1623 15.8895C58.0867 15.9614 58.0091 16.0334 57.9335 16.1073C57.1817 16.8507 57.1797 17.1767 57.9034 17.912C58.2142 18.2286 58.5277 18.5428 58.811 18.8813C60.4415 20.8362 60.96 23.1159 60.8845 25.5489C60.8615 26.2942 60.5966 26.4926 59.8428 26.4945C59.198 26.4957 58.5586 26.5258 57.9158 26.5158C57.2422 26.5089 56.9898 26.3311 56.8466 25.7091C56.7604 25.3406 56.7539 24.9513 56.7512 24.5708C56.719 21.5878 54.5141 19.2586 51.4718 19.0065C48.3553 18.7493 45.7205 20.656 45.1763 23.6084C45.0671 24.1978 45.0987 24.8174 45.1269 25.4219C45.1591 26.0683 45.0112 26.3825 44.3409 26.42C43.3853 26.4713 42.4218 26.4056 41.4597 26.3825C41.0942 26.373 40.9483 26.1666 40.9635 25.828C40.9772 25.4707 40.9832 25.114 40.9819 24.7561C40.9786 17.0309 40.9733 9.30328 40.97 1.57498C40.97 1.32029 40.9569 1.06373 41.0003 0.812168C41.0831 0.334702 41.3624 0.016806 41.9092 0.0105483C42.6577 0.000535977 43.409 -0.00884824 44.1575 0.0149311C44.7182 0.0330785 44.9923 0.317807 45.0191 0.913544C45.0481 1.49989 45.0264 2.08686 45.0264 2.67384C45.0284 4.58682 45.0264 6.49918 45.0264 8.41088C45.0264 8.41088 45.0212 8.41088 45.0191 8.41088Z" fill="#EF6D22"/>
<path d="M0 26.6918V11.6921H0.838615C1.10413 11.6921 1.25595 11.8185 1.29801 12.0701L1.43997 14.2402C2.05382 13.4085 2.75441 12.7327 3.54702 12.2202C4.33766 11.7084 5.22819 11.4512 6.22126 11.4512C7.37271 11.4512 8.29347 11.7672 8.98491 12.4017C9.67623 13.0318 10.1422 13.9129 10.3834 15.0393C10.5767 14.4267 10.8441 13.8923 11.1859 13.4411C11.5276 12.9893 11.9213 12.6145 12.3657 12.3178C12.8079 12.02 13.291 11.8035 13.8148 11.6627C14.3366 11.5219 14.8716 11.4512 15.4217 11.4512C16.2031 11.4512 16.9044 11.5732 17.5275 11.8185C18.1511 12.0669 18.6769 12.4305 19.1113 12.9129C19.5438 13.3954 19.875 13.9887 20.1077 14.6908C20.3404 15.3948 20.456 16.1989 20.456 17.1037V26.6905H18.9516V17.1037C18.9516 15.6376 18.6197 14.5162 17.9539 13.7496C17.2888 12.9799 16.3398 12.5969 15.1043 12.5969C14.5568 12.5969 14.0317 12.6933 13.5296 12.8836C13.0294 13.0738 12.5839 13.3591 12.1967 13.7333C11.8129 14.1113 11.508 14.5806 11.2799 15.1451C11.0525 15.7064 10.9388 16.3603 10.9388 17.1037V26.6905H9.41863V17.1037C9.41863 15.6457 9.11498 14.5305 8.50835 13.7565C7.90177 12.983 7.0119 12.5963 5.84073 12.5963C4.98568 12.5963 4.19438 12.8373 3.46553 13.3191C2.73798 13.8028 2.08931 14.4699 1.5195 15.3253V26.6905H0V26.6918Z" fill="#040D24"/>
<path d="M37.8877 11.6914L28.8318 31.5172C28.7681 31.658 28.6866 31.7724 28.5861 31.8644C28.4868 31.9527 28.3402 31.9996 28.149 31.9996H27.0731L29.8453 26.1355L23.1777 11.6914H24.4285C24.5882 11.6914 24.7156 11.7308 24.8103 11.8047C24.9043 11.8804 24.9667 11.9636 25.0002 12.055L30.302 23.7232C30.3671 23.874 30.4217 24.0267 30.469 24.1819C30.519 24.3389 30.5616 24.4966 30.605 24.6574C30.6569 24.4966 30.7109 24.3389 30.7707 24.1819C30.8292 24.0267 30.8896 23.874 30.9527 23.7232L36.1947 12.055C36.2466 11.9424 36.3209 11.856 36.4155 11.7903C36.5095 11.7252 36.6146 11.6914 36.731 11.6914H37.8877Z" fill="#040D24"/>
</g>
<defs>
<clipPath id="clip0_15898_33333">
<rect width="163" height="32" fill="white"/>
</clipPath>
</defs>
</svg>
