<svg width="196" height="33" viewBox="0 0 196 33" fill="none" xmlns="http://www.w3.org/2000/svg">
<g clip-path="url(#clip0_15898_33324)">
<path d="M15.334 33C15.334 33 13.161 30.7557 13.161 23.1859C13.161 18.0768 9.77509 16.5036 9.77509 16.5036C9.77509 16.5036 13.4642 14.4614 13.4642 8.52963C13.4642 3.92565 10.5764 0 4.59155 0H0C0 0 2.62065 0.923683 2.62065 8.52241V24.759C2.62065 31.5062 6.46138 32.9928 9.19754 32.9928H15.334V33Z" fill="url(#paint0_linear_15898_33324)"/>
<path d="M21.2902 33C17.9982 33 17.8682 26.5703 17.6661 23.1859C17.3701 18.084 14.7206 16.5036 14.7206 16.5036C14.7206 16.5036 17.9765 14.4614 17.9765 8.52963C17.9765 0.923682 13.7026 0 13.7026 0H17.5939C23.0518 0 27.5639 3.29062 27.5639 8.52241C27.5639 14.4542 22.8641 16.4964 22.8641 16.4964C22.8641 16.4964 27.2535 18.0695 27.2535 23.1787C27.2535 30.7557 30.2929 32.9928 30.2929 32.9928H21.283H21.2902V33ZM45.1721 22.6447L41.0426 16.6696H38.1187V22.6447H36.7903V7.85852H41.6057C44.5729 7.85852 46.3994 9.51826 46.3994 12.1522C46.3994 14.6202 44.9699 16.215 42.5009 16.5902L46.8181 22.6447H45.1721ZM41.0859 9.03477H38.1187V15.4861H41.1292C43.6993 15.4861 44.9916 14.4109 44.9916 12.145C44.9916 10.1749 43.5622 9.03477 41.0931 9.03477M52.5287 22.8972C49.9586 22.8972 48.0021 21.5911 48.0021 18.6685V16.3448C48.0021 13.48 49.7636 12.0295 52.2182 12.0295C54.6728 12.0295 56.059 13.5233 56.059 16.2005V17.8603H49.316V18.6252C49.316 20.4076 50.4134 21.7787 52.6153 21.7787C53.6766 21.7787 54.6295 21.0932 55.1854 20.3715L56.059 20.956C55.1638 22.2838 53.8787 22.9044 52.5287 22.9044M54.81 16.1211C54.81 14.6707 54.3119 13.112 52.1749 13.112C50.1824 13.112 49.3088 14.5047 49.3088 15.9335V16.8283H54.81V16.1211ZM61.2858 24.2827C60.7155 25.8487 59.8492 27.227 58.6219 27.2414L58.4919 26.2239C59.351 26.26 59.7553 25.1703 60.0224 24.4487L60.7516 22.457L57.0408 12.2749H58.4342L61.3797 20.7829H61.4447L64.3108 12.2749H65.5958L61.3003 24.2827H61.2858ZM148.634 24.1601C148.063 25.726 147.197 27.1043 145.97 27.1187L145.84 26.1012C146.699 26.1373 147.103 25.0477 147.37 24.326L148.099 22.3344L144.381 12.1522H145.775L148.72 20.6602H148.785L151.651 12.1522H152.936L148.641 24.1601H148.634ZM73.4722 22.6447V15.6737C73.4722 13.913 72.5193 13.1192 71.2919 13.1192C69.7975 13.1192 68.2815 14.6346 68.2815 16.5036V22.6447H66.9964V12.2749H68.2381V14.0789H68.3031C69.0467 12.8377 70.0285 12.0223 71.6457 12.0223C73.826 12.0223 74.7573 13.7037 74.7573 15.1758V22.6447H73.4722ZM80.6122 22.8972C77.9555 22.8972 76.6704 21.3602 76.6704 18.7046V16.2366C76.6704 13.5594 78.1865 12.0223 80.6772 12.0223C83.3339 12.0223 84.6406 13.581 84.6406 16.2366V18.6829C84.6406 21.3602 83.1029 22.89 80.6122 22.89M83.3123 16.2077C83.3123 14.447 82.7925 13.0975 80.7205 13.0975C78.6485 13.0975 77.9988 14.4253 77.9988 16.3088V18.6757C77.9988 20.4365 78.5186 21.8292 80.5906 21.8292C82.6625 21.8292 83.3123 20.5014 83.3123 18.6108V16.2077ZM89.0156 22.8539C87.4779 22.8539 86.5899 22.1251 86.5899 20.4509V7.85852H87.8966V20.4293C87.8966 21.1798 88.2287 21.7787 89.1384 21.7787C89.5138 21.7787 90.0697 21.6993 90.4667 21.6127V22.5869C89.8892 22.7745 89.4055 22.8539 89.0156 22.8539ZM98.0832 22.6447V21.1292H98.0616C97.3974 22.1684 96.2567 22.89 94.9283 22.89C92.7048 22.89 91.398 21.4395 91.398 19.5056V15.6665C91.398 13.0759 93.535 12.0151 95.3182 12.0151C96.2711 12.0151 97.4768 12.513 97.9966 13.3429H98.0399V7.84408H99.325V22.6447H98.0832ZM98.0399 15.782C98.0399 13.9779 96.5238 13.0614 95.2171 13.0614C93.9104 13.0614 92.7264 13.9346 92.7264 15.6737V19.3685C92.7264 20.6313 93.3689 21.7931 95.116 21.7931C96.5238 21.7931 98.0399 20.5519 98.0399 18.9283V15.7748V15.782ZM104.934 22.8972C103.361 22.8972 101.967 22.5003 100.993 21.4684L101.845 20.5736C102.74 21.3602 103.714 21.822 104.934 21.822C105.974 21.822 107.591 21.1798 107.591 19.953C107.591 18.7262 106.884 18.3149 105.555 18.0623L104.083 17.7953C102.487 17.5067 101.447 16.6551 101.447 15.0748C101.447 13.4944 102.631 12.0223 105.036 12.0223C106.364 12.0223 107.526 12.2893 108.335 13.0614L107.591 13.9707C106.761 13.3501 106.162 13.0975 104.833 13.0975C103.505 13.0975 102.776 13.8841 102.776 14.8222C102.776 15.7603 103.209 16.3809 104.436 16.583L106.306 16.9149C107.57 17.1459 108.876 17.8098 108.876 19.6138C108.876 21.7715 106.905 22.89 104.934 22.89M132.513 22.522L128.383 16.5469H125.459V22.522H124.131V7.72862H128.946C131.913 7.72862 133.74 9.38837 133.74 12.0223C133.74 14.4903 132.31 16.0851 129.841 16.4603L134.159 22.5148H132.513V22.522ZM128.426 8.91209H125.459V15.3634H128.47C131.04 15.3634 132.332 14.2882 132.332 12.0223C132.332 10.0523 130.903 8.91209 128.434 8.91209M139.848 22.7673C137.277 22.7673 135.321 21.4612 135.321 18.5386V16.215C135.321 13.3501 137.083 11.8996 139.537 11.8996C141.992 11.8996 143.378 13.3934 143.378 16.0706V17.7304H136.635V18.4953C136.635 20.2777 137.732 21.6488 139.934 21.6488C140.995 21.6488 141.948 20.9633 142.504 20.2416L143.378 20.8262C142.483 22.1539 141.198 22.7745 139.848 22.7745M142.129 15.9913C142.129 14.5408 141.631 12.9821 139.494 12.9821C137.501 12.9821 136.628 14.3748 136.628 15.8036V16.6984H142.129V15.9913ZM160.791 22.522V15.5511C160.791 13.7903 159.838 12.9965 158.611 12.9965C157.116 12.9965 155.6 14.5119 155.6 16.3809V22.522H154.315V12.1522H155.557V13.9563H155.622C156.366 12.7151 157.347 11.8996 158.965 11.8996C161.145 11.8996 162.076 13.581 162.076 15.0531V22.522H160.791ZM167.931 22.7673C165.274 22.7673 163.989 21.2303 163.989 18.5747V16.1067C163.989 13.4295 165.505 11.8924 167.996 11.8924C170.653 11.8924 171.96 13.4511 171.96 16.1067V18.553C171.96 21.2303 170.422 22.7601 167.931 22.7601M170.631 16.0778C170.631 14.3171 170.111 12.9676 168.039 12.9676C165.967 12.9676 165.318 14.2954 165.318 16.1789V18.5458C165.318 20.3066 165.837 21.6993 167.909 21.6993C169.981 21.6993 170.631 20.3715 170.631 18.4809V16.0778ZM176.335 22.724C174.797 22.724 173.909 21.9952 173.909 20.321V7.72862H175.215V20.2994C175.215 21.0499 175.548 21.6488 176.457 21.6488C176.833 21.6488 177.389 21.5694 177.786 21.4828V22.457C177.208 22.6447 176.724 22.724 176.335 22.724ZM185.402 22.522V21.0066H185.38C184.716 22.0457 183.576 22.7673 182.247 22.7673C180.024 22.7673 178.717 21.3169 178.717 19.3829V15.5438C178.717 12.9532 180.854 11.8924 182.637 11.8924C183.59 11.8924 184.796 12.3903 185.315 13.2202H185.359V7.72141H186.644V22.522H185.395H185.402ZM185.359 15.6593C185.359 13.8552 183.843 12.9388 182.536 12.9388C181.229 12.9388 180.045 13.8119 180.045 15.5511V19.2458C180.045 20.5086 180.688 21.6705 182.435 21.6705C183.843 21.6705 185.359 20.4293 185.359 18.8056V15.6521V15.6593ZM192.253 22.7673C190.672 22.7673 189.286 22.3704 188.312 21.3385L189.163 20.4437C190.059 21.2303 191.033 21.6921 192.253 21.6921C193.293 21.6921 194.91 21.0499 194.91 19.8231C194.91 18.5963 194.203 18.185 192.874 17.9324L191.401 17.6654C189.806 17.3768 188.766 16.5253 188.766 14.9449C188.766 13.3645 189.95 11.8924 192.354 11.8924C193.683 11.8924 194.845 12.1594 195.654 12.9316L194.91 13.8408C194.08 13.2202 193.481 12.9676 192.152 12.9676C190.824 12.9676 190.095 13.7542 190.095 14.6923C190.095 15.6304 190.528 16.251 191.755 16.4531L193.625 16.785C194.888 17.016 196.195 17.6799 196.195 19.4839C196.195 21.6416 194.224 22.7601 192.253 22.7601M119.741 19.2891C120.232 18.2499 120.564 17.1603 120.81 16.1067L119.951 15.9624C119.705 16.8789 119.46 17.6871 119.121 18.4592L116.247 14.6274C117.59 14.115 119.164 12.8883 119.164 10.8388C119.164 9.32342 118.16 7.45441 116.125 7.45441C113.591 7.45441 112.681 9.48939 112.681 10.8533C112.681 12.1161 113.526 13.2419 114.255 14.1944C111.923 15.3346 111.244 17.2613 111.244 18.7551C111.244 20.9127 112.601 22.7601 115.02 22.7601C116.81 22.7601 118.081 21.8869 119.012 20.6024L120.471 22.5075H122.174L119.749 19.2819L119.741 19.2891ZM116.045 8.60179C117.005 8.60179 117.778 9.22239 117.778 10.6584C117.778 12.0945 116.89 13.213 115.547 13.6965L114.608 12.4553C114.284 12.0223 114.139 11.2429 114.139 10.8244C114.139 9.7564 114.608 8.60179 116.052 8.60179M115.244 21.6272C113.656 21.6272 112.84 20.0973 112.84 18.6829C112.84 17.7448 113.244 15.7748 114.818 15.1686L118.326 19.9386C117.518 21.122 116.421 21.6272 115.244 21.6272Z" fill="#1A2A3D"/>
</g>
<defs>
<linearGradient id="paint0_linear_15898_33324" x1="-17.7309" y1="57.9033" x2="35.8249" y2="-29.4849" gradientUnits="userSpaceOnUse">
<stop offset="0.26" stop-color="#00B2E5"/>
<stop offset="0.47" stop-color="#0B70B7"/>
<stop offset="0.65" stop-color="#253670"/>
</linearGradient>
<clipPath id="clip0_15898_33324">
<rect width="196" height="33" fill="white"/>
</clipPath>
</defs>
</svg>
