<svg width="179" height="21" viewBox="0 0 179 21" fill="none" xmlns="http://www.w3.org/2000/svg">
<g clip-path="url(#clip0_15898_33327)">
<path fill-rule="evenodd" clip-rule="evenodd" d="M31.7201 0.210211C32.9301 0.210211 33.9101 1.26021 33.9101 2.55171C33.9127 2.85595 33.8581 3.15773 33.7493 3.43973C33.6406 3.72174 33.4799 3.97841 33.2764 4.195C33.0729 4.4116 32.8306 4.58385 32.5636 4.70186C32.2965 4.81988 32.0098 4.88134 31.7201 4.88271H19.2601V18.6902C19.2627 18.9936 19.2084 19.2945 19.1003 19.5758C18.9922 19.8571 18.8323 20.1133 18.6299 20.3298C18.4275 20.5463 18.1864 20.7187 17.9205 20.8374C17.6546 20.956 17.369 21.0185 17.0801 21.0212C15.8801 21.0212 14.9001 19.9712 14.9001 18.6902V4.88271H2.43009C1.23009 4.88271 0.250092 3.83271 0.250092 2.55171C0.247453 2.24835 0.301749 1.94742 0.409879 1.6661C0.518008 1.38478 0.677854 1.12857 0.880288 0.912116C1.08272 0.69566 1.32378 0.523192 1.5897 0.40456C1.85561 0.285928 2.14118 0.223456 2.43009 0.220711H31.7301L31.7201 0.210211ZM176.15 0.241711C176.455 0.212447 176.763 0.250492 177.054 0.353404C177.344 0.456316 177.611 0.621825 177.837 0.839318C178.063 1.05681 178.243 1.32149 178.366 1.61637C178.489 1.91126 178.551 2.22985 178.55 2.55171V16.5692C178.55 17.9132 178.01 19.2257 177.01 20.0342C176.413 20.5289 175.69 20.8268 174.932 20.8903C174.173 20.9539 173.414 20.7802 172.75 20.3912L149.34 6.03771C149.206 5.95758 149.054 5.91633 148.9 5.9182C148.745 5.92006 148.594 5.96497 148.462 6.04832C148.33 6.13166 148.221 6.25046 148.147 6.39251C148.073 6.53456 148.036 6.69477 148.04 6.85671V18.6902C148.041 19.0121 147.979 19.3307 147.856 19.6255C147.733 19.9204 147.553 20.1851 147.327 20.4026C147.101 20.6201 146.834 20.7856 146.544 20.8885C146.253 20.9914 145.945 21.0295 145.64 21.0002C144.5 20.8952 143.67 19.8032 143.67 18.5852V4.56771C143.67 3.22371 144.21 1.91121 145.21 1.10271C145.792 0.620785 146.494 0.324914 147.231 0.250437C147.969 0.17596 148.711 0.326026 149.37 0.682711L149.47 0.745711L172.87 15.0887C173.004 15.1737 173.157 15.2193 173.313 15.2206C173.47 15.2219 173.624 15.179 173.759 15.0962C173.894 15.0135 174.005 14.894 174.081 14.7504C174.157 14.6068 174.195 14.4444 174.19 14.2802V2.66721C174.19 1.44921 175.02 0.357211 176.15 0.241711ZM88.9001 0.577711C89.8001 -0.262289 91.1801 -0.178289 91.9801 0.787711C92.7801 1.75371 92.6901 3.23421 91.7801 4.08471C88.9079 6.8253 85.588 8.99868 81.9801 10.5002C85.5882 12.0013 88.9082 14.1748 91.7801 16.9157C92.6901 17.7767 92.7801 19.2467 91.9801 20.2127C91.7927 20.4416 91.5637 20.6289 91.3065 20.7636C91.0492 20.8984 90.769 20.9779 90.4821 20.9974C90.1953 21.017 89.9076 20.9762 89.6359 20.8775C89.3643 20.7789 89.1141 20.6242 88.9001 20.4227C80.4801 12.4847 71.7801 12.9362 69.9001 13.1357V18.5957C69.9041 18.9008 69.8504 19.2037 69.7423 19.487C69.6341 19.7702 69.4736 20.0281 69.2699 20.2458C69.0663 20.4635 68.8236 20.6367 68.5559 20.7554C68.2882 20.8741 68.0007 20.9359 67.7101 20.9372C66.5101 20.9372 65.5301 19.8872 65.5301 18.6062V2.55171C65.5275 2.24835 65.5817 1.94742 65.6899 1.6661C65.798 1.38478 65.9579 1.12857 66.1603 0.912116C66.3627 0.69566 66.6038 0.523192 66.8697 0.40456C67.1356 0.285928 67.4212 0.223456 67.7101 0.220711C68.9101 0.220711 69.8901 1.27071 69.8901 2.55171V7.86471C70.7201 7.94871 72.8601 8.07471 75.6901 7.54971C80.5201 6.62571 84.9701 4.29471 88.9001 0.577711ZM59.7401 0.220711C60.9401 0.220711 61.9201 1.27071 61.9201 2.55171C61.9267 3.13995 61.7193 3.70866 61.3402 4.14182C60.9611 4.57499 60.4389 4.83997 59.8801 4.88271H45.6601C44.235 4.89658 42.8733 5.50363 41.874 6.5706C40.8747 7.63758 40.3194 9.07729 40.3301 10.5737C40.3184 12.0365 40.8475 13.447 41.8062 14.5085C42.7648 15.5699 44.0783 16.1995 45.4701 16.2647H59.7401C60.9401 16.2647 61.9201 17.3147 61.9201 18.6062C61.9241 19.1926 61.7156 19.7587 61.3367 20.1897C60.9579 20.6206 60.4371 20.8841 59.8801 20.9267H45.6601C44.3758 20.9157 43.106 20.6392 41.9235 20.113C40.7409 19.5867 39.6687 18.8211 38.7679 17.8597C37.8672 16.8983 37.1556 15.7601 36.6738 14.5099C36.1921 13.2598 35.9495 11.9223 35.9601 10.5737C35.9601 4.94571 40.1801 0.357211 45.4201 0.220711H59.7401ZM98.7001 0.210211C99.9001 0.210211 100.88 1.26021 100.88 2.54121V18.5957C100.883 18.8991 100.828 19.2 100.72 19.4813C100.612 19.7626 100.452 20.0188 100.25 20.2353C100.047 20.4518 99.8064 20.6242 99.5405 20.7429C99.2746 20.8615 98.989 20.924 98.7001 20.9267C97.5001 20.9267 96.5201 19.8767 96.5201 18.5957V2.55171C96.5174 2.24835 96.5717 1.94742 96.6799 1.6661C96.788 1.38478 96.9479 1.12857 97.1503 0.912116C97.3527 0.69566 97.5938 0.523192 97.8597 0.40456C98.1256 0.285928 98.4112 0.223456 98.7001 0.220711V0.210211ZM130.88 0.210211C133.329 0.2324 135.669 1.27446 137.387 3.10744C139.104 4.94042 140.059 7.41436 140.04 9.98571V11.1407C140.04 16.5377 135.94 20.9267 130.88 20.9267H114.08C111.635 20.899 109.299 19.8545 107.586 18.0221C105.873 16.1898 104.921 13.719 104.94 11.1512V9.99621C104.94 4.59921 109.04 0.210211 114.09 0.210211H130.89H130.88ZM130.88 4.87221H114.08C112.801 4.88607 111.579 5.43227 110.683 6.39095C109.787 7.34962 109.289 8.64245 109.3 9.98571V11.1407C109.293 11.8076 109.412 12.4693 109.65 13.0879C109.887 13.7066 110.238 14.27 110.683 14.7459C111.128 15.2219 111.658 15.601 112.242 15.8616C112.827 16.1223 113.455 16.2592 114.09 16.2647H130.89C132.169 16.2509 133.391 15.7046 134.287 14.746C135.183 13.7873 135.681 12.4945 135.67 11.1512V9.99621C135.677 9.3302 135.558 8.66935 135.322 8.05139C135.085 7.43344 134.735 6.87048 134.291 6.39466C133.847 5.91885 133.318 5.5395 132.735 5.27827C132.151 5.01705 131.524 4.87907 130.89 4.87221H130.88ZM57.9001 8.24271C59.1001 8.24271 60.0801 9.29271 60.0801 10.5737C60.0865 11.1636 59.8777 11.7338 59.4965 12.1672C59.1153 12.6007 58.5907 12.8645 58.0301 12.9047H45.6801C44.4701 12.9047 43.4901 11.8547 43.4901 10.5737C43.4901 9.33471 44.3901 8.32671 45.5401 8.25321H57.9001V8.24271Z" fill="#00C3B4"/>
</g>
<defs>
<clipPath id="clip0_15898_33327">
<rect width="179" height="21" fill="white"/>
</clipPath>
</defs>
</svg>
