<svg width="183" height="41" viewBox="0 0 183 41" fill="none" xmlns="http://www.w3.org/2000/svg">
<g clip-path="url(#clip0_15898_33367)">
<path d="M58.4818 20.3919L53.0557 5.78027H55.7155L59.8295 17.9448H59.9004L63.908 5.78027H66.426L61.1062 20.3919H58.4818Z" fill="black"/>
<path d="M77.456 0.212891L85.3647 20.3925H82.4211L80.2223 14.328H71.6397L69.37 20.3925H66.6392L74.5124 0.212891H77.456ZM79.3357 12.0582L75.9665 2.65998H75.8956L72.4909 12.0582H79.3357Z" fill="black"/>
<path d="M96.7841 20.3926V18.0873H96.7132C96.2167 18.974 95.5428 19.6478 94.7626 20.0734C93.9824 20.499 93.0248 20.7118 91.9608 20.7118C91.0033 20.7118 90.1876 20.6054 89.5492 20.3216C88.9108 20.0379 88.3789 19.7187 87.9888 19.2577C87.5986 18.7966 87.3149 18.2292 87.1731 17.5554C87.0312 16.917 86.9248 16.1722 86.9248 15.392V5.81641H89.3364V15.6757C89.3364 16.5623 89.5847 17.3071 90.1167 17.8391C90.6486 18.3711 91.3934 18.6193 92.28 18.6193C92.9893 18.6193 93.6632 18.5129 94.1952 18.3001C94.7271 18.0873 95.1527 17.7682 95.5428 17.3426C95.9329 16.917 96.1457 16.4559 96.3231 15.8885C96.5004 15.3565 96.6068 14.7181 96.6068 14.0443V5.81641H99.0184V20.428L96.7841 20.3926Z" fill="black"/>
<path d="M108.878 5.81662V7.94453H105.97V17.0236C105.97 17.3073 106.005 17.5201 106.04 17.6974C106.076 17.8748 106.182 17.9812 106.324 18.0876C106.466 18.1939 106.643 18.2294 106.856 18.2649C107.069 18.3003 107.388 18.3003 107.743 18.3003H108.878V20.4282H107.034C106.431 20.4282 105.863 20.3928 105.438 20.3219C105.012 20.2509 104.657 20.0736 104.374 19.8608C104.09 19.648 103.913 19.3288 103.771 18.9032C103.629 18.4777 103.593 17.9457 103.593 17.2719V7.94453H101.111V5.81662H103.593V1.41895H106.005V5.81662H108.878Z" fill="black"/>
<path d="M111.219 10.1069C111.502 9.18478 111.963 8.36908 112.602 7.65978C113.24 6.95047 113.949 6.4185 114.836 6.02838C115.723 5.63826 116.751 5.46094 117.886 5.46094C119.056 5.46094 120.085 5.63826 120.936 6.02838C121.787 6.4185 122.567 6.95047 123.17 7.65978C123.773 8.36908 124.199 9.18478 124.553 10.1069C124.837 11.029 124.979 12.0575 124.979 13.0859C124.979 14.1144 124.837 15.1784 124.553 16.065C124.27 16.9871 123.809 17.8028 123.17 18.4766C122.532 19.1505 121.823 19.7179 120.936 20.108C120.085 20.4981 119.021 20.6755 117.886 20.6755C116.716 20.6755 115.723 20.4981 114.836 20.108C113.949 19.7179 113.205 19.1859 112.602 18.4766C111.999 17.7673 111.573 16.9871 111.219 16.065C110.935 15.1429 110.793 14.1499 110.793 13.0859C110.793 11.9865 110.899 11.029 111.219 10.1069ZM113.666 15.4976C113.878 16.1714 114.198 16.7743 114.623 17.2354C115.013 17.6964 115.51 18.0511 116.077 18.2638C116.609 18.4766 117.248 18.6185 117.851 18.6185C118.453 18.6185 119.092 18.5121 119.624 18.2638C120.156 18.0156 120.652 17.6609 121.078 17.2354C121.468 16.8098 121.787 16.2069 122.035 15.4976C122.248 14.8237 122.39 14.008 122.39 13.1569C122.39 12.3057 122.284 11.49 122.035 10.8162C121.823 10.1423 121.468 9.53943 121.078 9.07838C120.688 8.61733 120.191 8.26268 119.624 8.01443C119.092 7.76617 118.453 7.65978 117.851 7.65978C117.248 7.65978 116.609 7.76617 116.077 8.01443C115.545 8.26268 115.049 8.61733 114.623 9.07838C114.233 9.53943 113.914 10.1069 113.666 10.8162C113.453 11.49 113.311 12.3057 113.311 13.1569C113.311 14.008 113.417 14.7883 113.666 15.4976Z" fill="black"/>
<path d="M54.4033 26.5986V30.7126H54.4388C54.6516 30.287 54.9708 29.9678 55.4318 29.755C55.8929 29.5422 56.3894 29.4713 56.9568 29.4713C57.5597 29.4713 58.0917 29.5777 58.5528 29.7905C58.9783 30.0033 59.3685 30.3225 59.6522 30.6771C59.9359 31.0318 60.1842 31.4928 60.326 32.0248C60.4679 32.5213 60.5388 33.0533 60.5388 33.6207C60.5388 34.1882 60.4679 34.6847 60.326 35.2167C60.1842 35.7132 59.9714 36.1387 59.6522 36.5289C59.3685 36.8835 58.9783 37.1672 58.5528 37.38C58.1272 37.5928 57.5952 37.6992 56.9568 37.6992C56.7795 37.6992 56.5667 37.6637 56.3185 37.6283C56.0702 37.5928 55.8574 37.5219 55.6092 37.4155C55.3964 37.3091 55.1481 37.2027 54.9353 37.0608C54.7225 36.919 54.5452 36.7062 54.4033 36.4934H54.3679V37.5219H53.0557V26.5986H54.4033ZM59.0847 32.4504C58.9783 32.0957 58.8365 31.812 58.6591 31.5283C58.4464 31.2446 58.1981 31.0318 57.9144 30.8899C57.5952 30.7481 57.2405 30.6417 56.8504 30.6417C56.4248 30.6417 56.0702 30.7126 55.751 30.8899C55.4318 31.0672 55.1836 31.28 55.0062 31.5637C54.8289 31.8475 54.6871 32.1667 54.5807 32.5213C54.5097 32.876 54.4388 33.2306 54.4388 33.5853C54.4388 33.9754 54.4743 34.33 54.5807 34.6847C54.6871 35.0393 54.8289 35.3585 55.0062 35.6422C55.219 35.926 55.4673 36.1387 55.751 36.2806C56.0702 36.4579 56.4248 36.5289 56.8859 36.5289C57.3469 36.5289 57.7016 36.4579 57.9853 36.2806C58.269 36.1033 58.5173 35.8905 58.6946 35.6068C58.8719 35.3231 59.0138 35.0039 59.0847 34.6492C59.1557 34.2946 59.1911 33.9044 59.1911 33.5143C59.2266 33.1597 59.1911 32.805 59.0847 32.4504Z" fill="black"/>
<path d="M65.2203 38.6221C65.0785 39.0122 64.9366 39.3314 64.7947 39.5796C64.6529 39.8279 64.4756 40.0407 64.2982 40.218C64.1209 40.3953 63.9081 40.5017 63.6953 40.5727C63.4825 40.6436 63.2343 40.6791 62.9506 40.6791C62.8087 40.6791 62.6314 40.6791 62.4895 40.6436C62.3476 40.6081 62.2058 40.5727 62.0639 40.5372V39.3669C62.1703 39.4023 62.3122 39.4733 62.454 39.5087C62.5959 39.5442 62.7378 39.5796 62.8087 39.5796C63.0569 39.5796 63.3052 39.5087 63.4825 39.4023C63.6599 39.2959 63.8017 39.0831 63.8726 38.8703L64.4046 37.5227L61.2837 29.6494H62.7732L65.0785 36.1395H65.1139L67.3482 29.6494H68.7314L65.2203 38.6221Z" fill="black"/>
<path d="M80.8607 28.1596C80.2933 27.7695 79.6194 27.5922 78.8747 27.5922C78.2363 27.5922 77.6334 27.6986 77.1724 27.9468C76.7113 28.1951 76.3212 28.5143 76.0375 28.9044C75.7538 29.2945 75.541 29.791 75.3636 30.323C75.2218 30.855 75.1508 31.3869 75.1508 31.9898C75.1508 32.5928 75.2218 33.2311 75.3636 33.7631C75.5055 34.3305 75.7183 34.7916 76.0375 35.2172C76.3212 35.6428 76.7113 35.9619 77.1724 36.1747C77.6334 36.3875 78.2008 36.5294 78.8747 36.5294C79.3357 36.5294 79.7613 36.4585 80.1869 36.2811C80.577 36.1038 80.8607 35.891 81.1445 35.6428C81.4282 35.3945 81.6055 35.0398 81.7828 34.6497C81.9247 34.2596 82.0311 33.8695 82.0665 33.373H83.5206C83.3788 34.7561 82.9177 35.8201 82.0665 36.5648C81.2508 37.3096 80.1514 37.6997 78.7683 37.6997C77.9171 37.6997 77.1724 37.5579 76.534 37.2742C75.8956 36.9904 75.3991 36.6003 74.9381 36.1038C74.5125 35.6073 74.2288 35.0044 74.016 34.2951C73.8032 33.6212 73.6968 32.841 73.6968 32.0608C73.6968 31.2805 73.8032 30.5003 74.016 29.8265C74.2288 29.1526 74.5479 28.5143 74.9735 27.9823C75.3991 27.4858 75.9311 27.0602 76.6049 26.741C77.2433 26.4573 78.0235 26.3154 78.8392 26.3154C79.4067 26.3154 79.9386 26.3864 80.4706 26.5282C81.0026 26.6701 81.4282 26.9183 81.8538 27.2021C82.2793 27.4858 82.5631 27.8404 82.8468 28.3015C83.095 28.7271 83.2724 29.259 83.3433 29.8619H81.8892C81.7828 29.1172 81.4282 28.5497 80.8607 28.1596Z" fill="black"/>
<path d="M84.9035 31.9545C85.0454 31.458 85.2936 31.0325 85.6128 30.6069C85.932 30.2522 86.3221 29.9685 86.8541 29.7557C87.3152 29.5429 87.8826 29.4365 88.521 29.4365C89.1239 29.4365 89.6913 29.5429 90.1878 29.7557C90.6489 29.9685 91.039 30.2522 91.3582 30.6069C91.6774 30.9615 91.9256 31.3871 92.0675 31.9545C92.2448 32.4511 92.3157 32.983 92.3157 33.5859C92.3157 34.1888 92.2448 34.6854 92.0675 35.2173C91.8902 35.7139 91.6774 36.1394 91.3582 36.5295C91.039 36.8842 90.6489 37.1679 90.1878 37.3807C89.7268 37.5935 89.1593 37.6999 88.521 37.6999C87.9181 37.6999 87.3506 37.5935 86.8541 37.3807C86.3931 37.1679 86.0029 36.8842 85.6128 36.5295C85.2936 36.1749 85.0454 35.7493 84.9035 35.2173C84.7617 34.7208 84.6553 34.1888 84.6553 33.5859C84.6553 32.983 84.7262 32.4865 84.9035 31.9545ZM86.2512 34.8982C86.3931 35.2528 86.5349 35.572 86.7832 35.8202C86.996 36.0685 87.2797 36.2458 87.5634 36.3877C87.8471 36.5295 88.1663 36.6005 88.521 36.6005C88.8756 36.6005 89.1593 36.5295 89.4785 36.3877C89.7977 36.2458 90.046 36.0685 90.2588 35.8202C90.4716 35.572 90.6489 35.2528 90.7907 34.8982C90.9326 34.5435 90.9681 34.1179 90.9681 33.5859C90.9681 33.0894 90.8971 32.6993 90.7907 32.2737C90.6489 31.9191 90.507 31.5999 90.2588 31.3516C90.046 31.1034 89.7623 30.9261 89.4785 30.7842C89.1948 30.6423 88.8756 30.5714 88.521 30.5714C88.1663 30.5714 87.8826 30.6423 87.5634 30.7842C87.2442 30.9261 86.996 31.1034 86.7832 31.3516C86.5704 31.5999 86.3931 31.9191 86.2512 32.2737C86.1093 32.6284 86.0739 33.054 86.0739 33.5859C86.0739 34.0825 86.1093 34.508 86.2512 34.8982Z" fill="black"/>
<path d="M93.2733 29.6133H94.9402L96.8553 32.3796L98.8414 29.6133H100.402L97.671 33.2307L100.721 37.522H99.0541L96.8553 34.2592L94.6565 37.522H93.0605L96.0042 33.3371L93.2733 29.6133Z" fill="black"/>
<path d="M110.864 26.5986L115.155 37.5574H113.524L112.353 34.2946H107.743L106.502 37.5574H105.012L109.268 26.5986H110.864ZM111.857 33.0533L110.013 27.9463H109.977L108.169 33.0533H111.857Z" fill="black"/>
<path d="M121.291 37.5575V36.2807H121.255C120.971 36.7772 120.652 37.1319 120.227 37.3447C119.801 37.5575 119.305 37.6993 118.702 37.6993C118.17 37.6993 117.78 37.6284 117.389 37.4865C116.999 37.3447 116.787 37.1674 116.574 36.9191C116.361 36.6708 116.219 36.3517 116.148 36.0325C116.077 35.6778 116.006 35.2877 116.006 34.8976V29.6133H117.319V34.9685C117.319 35.465 117.46 35.8197 117.744 36.1034C118.028 36.3871 118.418 36.529 118.914 36.529C119.305 36.529 119.659 36.458 119.943 36.3517C120.227 36.2453 120.475 36.0679 120.652 35.8551C120.83 35.6424 120.971 35.3941 121.078 35.0749C121.184 34.7912 121.22 34.4365 121.22 34.1173V29.6133H122.532V37.522L121.291 37.5575Z" fill="black"/>
<path d="M127.887 29.6132V30.748H126.291V35.6777C126.291 35.8196 126.291 35.9614 126.327 36.0323C126.362 36.1033 126.398 36.1742 126.469 36.2451C126.54 36.2806 126.646 36.3161 126.752 36.3515C126.894 36.3515 127.036 36.387 127.249 36.387H127.852V37.5219H126.859C126.54 37.5219 126.256 37.4864 126.008 37.4509C125.759 37.4155 125.582 37.3091 125.44 37.2027C125.298 37.0963 125.192 36.919 125.121 36.7062C125.05 36.4934 125.015 36.2097 125.015 35.8196V30.819H123.667V29.6841H125.015V27.2725H126.327V29.6486L127.887 29.6132Z" fill="black"/>
<path d="M129.164 31.9545C129.341 31.458 129.554 31.0325 129.873 30.6069C130.192 30.2522 130.582 29.9685 131.114 29.7557C131.575 29.5429 132.143 29.4365 132.781 29.4365C133.384 29.4365 133.952 29.5429 134.448 29.7557C134.909 29.9685 135.299 30.2522 135.618 30.6069C135.938 30.9615 136.186 31.3871 136.328 31.9545C136.505 32.4511 136.576 32.983 136.576 33.5859C136.576 34.1888 136.505 34.6854 136.328 35.2173C136.15 35.7139 135.938 36.1394 135.618 36.5295C135.299 36.8842 134.909 37.1679 134.448 37.3807C133.987 37.5935 133.42 37.6999 132.781 37.6999C132.178 37.6999 131.611 37.5935 131.114 37.3807C130.653 37.1679 130.228 36.8842 129.873 36.5295C129.554 36.1749 129.306 35.7493 129.164 35.2173C129.022 34.7208 128.916 34.1888 128.916 33.5859C128.916 32.983 128.986 32.4865 129.164 31.9545ZM130.441 34.8982C130.582 35.2528 130.724 35.572 130.972 35.8202C131.185 36.0685 131.469 36.2458 131.753 36.3877C132.036 36.5295 132.356 36.6005 132.71 36.6005C133.065 36.6005 133.349 36.5295 133.668 36.3877C133.987 36.2458 134.235 36.0685 134.448 35.8202C134.661 35.572 134.838 35.2528 134.98 34.8982C135.122 34.5435 135.157 34.1179 135.157 33.5859C135.157 33.0894 135.086 32.6993 134.98 32.2737C134.838 31.9191 134.696 31.5999 134.448 31.3516C134.235 31.1034 133.952 30.9261 133.668 30.7842C133.384 30.6423 133.065 30.5714 132.71 30.5714C132.356 30.5714 132.072 30.6423 131.753 30.7842C131.434 30.9261 131.185 31.1034 130.972 31.3516C130.76 31.5999 130.582 31.9191 130.441 32.2737C130.299 32.6284 130.263 33.054 130.263 33.5859C130.263 34.0825 130.334 34.508 130.441 34.8982Z" fill="black"/>
<path d="M139.342 29.6135V30.7484H139.378C139.945 29.8617 140.832 29.4007 141.931 29.4007C142.428 29.4007 142.853 29.5071 143.279 29.6844C143.669 29.8972 143.953 30.2164 144.095 30.7129C144.343 30.2873 144.698 29.9681 145.123 29.7199C145.549 29.4716 146.01 29.3652 146.577 29.3652C146.967 29.3652 147.322 29.4007 147.641 29.5071C147.96 29.578 148.244 29.7199 148.457 29.8972C148.67 30.0745 148.847 30.3228 148.989 30.6065C149.131 30.8902 149.166 31.2449 149.166 31.635V37.4158H147.889V32.3443C147.889 32.096 147.854 31.8833 147.819 31.6705C147.783 31.4577 147.712 31.2803 147.606 31.103C147.499 30.9257 147.358 30.8193 147.145 30.7484C146.932 30.6774 146.684 30.6065 146.4 30.6065C145.762 30.6065 145.265 30.7838 144.875 31.1385C144.52 31.4931 144.343 31.9897 144.343 32.628V37.5577H143.031V32.3443C143.031 32.096 142.995 31.8478 142.96 31.635C142.924 31.4222 142.818 31.2449 142.712 31.0676C142.605 30.8902 142.463 30.7838 142.286 30.7129C142.109 30.642 141.86 30.571 141.577 30.571C141.222 30.571 140.867 30.642 140.619 30.7838C140.371 30.9257 140.123 31.103 139.981 31.3158C139.839 31.5286 139.697 31.7414 139.626 31.9542C139.555 32.167 139.52 32.3798 139.52 32.5216V37.4513H138.208V29.5426L139.342 29.6135Z" fill="black"/>
<path d="M150.975 31.9545C151.152 31.458 151.365 31.0325 151.684 30.6069C152.003 30.2522 152.393 29.9685 152.925 29.7557C153.386 29.5429 153.954 29.4365 154.592 29.4365C155.231 29.4365 155.763 29.5429 156.259 29.7557C156.72 29.9685 157.11 30.2522 157.429 30.6069C157.749 30.9615 157.997 31.3871 158.139 31.9545C158.316 32.4511 158.387 32.983 158.387 33.5859C158.387 34.1888 158.316 34.6854 158.139 35.2173C157.961 35.7139 157.749 36.1394 157.429 36.5295C157.11 36.8842 156.72 37.1679 156.259 37.3807C155.798 37.5935 155.231 37.6999 154.592 37.6999C153.954 37.6999 153.422 37.5935 152.925 37.3807C152.464 37.1679 152.039 36.8842 151.684 36.5295C151.365 36.1749 151.117 35.7493 150.975 35.2173C150.833 34.7208 150.727 34.1888 150.727 33.5859C150.727 32.983 150.833 32.4865 150.975 31.9545ZM152.287 34.8982C152.429 35.2528 152.571 35.572 152.819 35.8202C153.032 36.0685 153.316 36.2458 153.599 36.3877C153.883 36.5295 154.202 36.6005 154.557 36.6005C154.911 36.6005 155.195 36.5295 155.514 36.3877C155.834 36.2458 156.082 36.0685 156.295 35.8202C156.507 35.572 156.685 35.2528 156.827 34.8982C156.968 34.5435 157.004 34.1179 157.004 33.5859C157.004 33.0894 156.933 32.6993 156.827 32.2737C156.685 31.9191 156.543 31.5999 156.295 31.3516C156.082 31.1034 155.798 30.9261 155.514 30.7842C155.231 30.6423 154.911 30.5714 154.557 30.5714C154.202 30.5714 153.918 30.6423 153.599 30.7842C153.28 30.9261 153.032 31.1034 152.819 31.3516C152.606 31.5999 152.429 31.9191 152.287 32.2737C152.145 32.6284 152.11 33.054 152.11 33.5859C152.11 34.0825 152.181 34.508 152.287 34.8982Z" fill="black"/>
<path d="M163.352 29.6132V30.748H161.757V35.6777C161.757 35.8196 161.757 35.9614 161.792 36.0323C161.827 36.1033 161.863 36.1742 161.934 36.2451C162.005 36.2806 162.111 36.3161 162.218 36.3515C162.359 36.3515 162.501 36.387 162.714 36.387H163.317V37.5219H162.324C162.005 37.5219 161.721 37.4864 161.473 37.4509C161.225 37.4155 161.047 37.3091 160.905 37.2027C160.764 37.0963 160.657 36.919 160.586 36.7062C160.515 36.4934 160.48 36.2097 160.48 35.8196V30.819H159.097V29.6841H160.444V27.2725H161.757V29.6486L163.352 29.6132Z" fill="black"/>
<path d="M164.842 28.2307V26.6348H166.154V28.2307H164.842ZM166.154 29.6138V37.5226H164.842V29.6138H166.154Z" fill="black"/>
<path d="M170.339 37.5581L167.396 29.6494H168.85L171.084 36.2459H171.119L173.283 29.6494H174.666L171.793 37.5581C171.722 37.5581 170.339 37.5581 170.339 37.5581Z" fill="black"/>
<path d="M181.404 37.0261C180.837 37.4516 180.057 37.6999 179.17 37.6999C178.532 37.6999 178 37.5935 177.503 37.4162C177.042 37.2388 176.652 36.9197 176.368 36.565C176.049 36.2104 175.836 35.7848 175.659 35.2173C175.517 34.7208 175.411 34.1534 175.411 33.5505C175.411 32.9476 175.482 32.4156 175.694 31.8836C175.872 31.3871 176.12 30.9615 176.439 30.5714C176.758 30.2168 177.148 29.933 177.609 29.7202C178.071 29.5075 178.532 29.4365 179.099 29.4365C179.808 29.4365 180.411 29.5784 180.872 29.8621C181.333 30.1458 181.688 30.5005 181.972 30.9615C182.255 31.3871 182.433 31.8836 182.539 32.4511C182.646 32.983 182.681 33.4795 182.681 33.9761H176.758C176.758 34.3307 176.794 34.6499 176.865 34.9336C176.936 35.2528 177.113 35.5011 177.29 35.7493C177.503 35.9976 177.751 36.1749 178.071 36.3168C178.39 36.4586 178.744 36.5295 179.17 36.5295C179.702 36.5295 180.163 36.4232 180.553 36.1394C180.908 35.8912 181.121 35.5011 181.227 35.0045H182.539C182.362 35.9266 182.007 36.6005 181.404 37.0261ZM181.121 31.9545C181.014 31.6708 180.837 31.458 180.659 31.2452C180.482 31.0325 180.234 30.8906 179.95 30.7842C179.666 30.6778 179.383 30.6069 179.064 30.6069C178.744 30.6069 178.425 30.6778 178.177 30.7842C177.893 30.8906 177.68 31.0679 177.503 31.2452C177.326 31.4226 177.148 31.6708 177.042 31.9545C176.936 32.2383 176.865 32.522 176.865 32.8057H181.404C181.298 32.5575 181.227 32.2028 181.121 31.9545Z" fill="black"/>
<path d="M20.4989 0.177734C9.29196 0.177734 0.212891 9.29227 0.212891 20.4992C0.212891 31.7062 9.29196 40.7853 20.4989 40.7853C31.7059 40.7853 40.785 31.7062 40.785 20.4992C40.785 9.29227 31.7059 0.177734 20.4989 0.177734ZM21.3146 33.1248H19.7542L9.22103 10.3208L14.6827 12.5196L20.5344 25.287L26.3507 12.5196L31.6704 10.4981L21.3146 33.1248Z" fill="#FF821C"/>
</g>
<defs>
<clipPath id="clip0_15898_33367">
<rect width="183" height="40.7849" fill="white"/>
</clipPath>
</defs>
</svg>
