<svg width="204" height="41" viewBox="0 0 204 41" fill="none" xmlns="http://www.w3.org/2000/svg">
<g clip-path="url(#clip0_15898_33285)">
<path d="M58.4954 20.5114L51.5579 0.641602H54.3676L60.0217 17.8575H60.0911L65.7799 0.641602H68.5202L61.4786 20.5114H58.4954Z" fill="#353535"/>
<path d="M69.8731 3.54001V0.641602H72.2318V3.54001H69.8731ZM72.1971 6.12414V20.5114H69.8384V6.12414H72.1971Z" fill="#353535"/>
<path d="M78.0594 6.1246V8.39444H78.1288C79.1 6.64841 80.661 5.77539 82.7769 5.77539C83.7135 5.77539 84.5113 5.91507 85.1357 6.15952C85.7601 6.40396 86.2804 6.78809 86.662 7.24206C87.0435 7.69603 87.321 8.25476 87.4598 8.88333C87.5985 9.5119 87.7026 10.2452 87.7026 11.0135V20.477H85.3438V10.769C85.3438 9.86111 85.101 9.16269 84.5807 8.63888C84.0604 8.11507 83.3666 7.87063 82.4647 7.87063C81.7363 7.87063 81.1119 7.97539 80.5916 8.21983C80.0713 8.42936 79.6203 8.74364 79.2735 9.16269C78.9266 9.58174 78.6491 10.0357 78.4756 10.5944C78.3022 11.1532 78.1981 11.7468 78.1981 12.3754V20.5119H75.8394V6.1246H78.0594Z" fill="#353535"/>
<path d="M101.508 3.36551C100.641 2.73694 99.4963 2.38774 98.1435 2.38774C97.5885 2.38774 97.0335 2.45758 96.5132 2.56234C95.9929 2.6671 95.5072 2.87662 95.091 3.12107C94.6747 3.36551 94.3279 3.71472 94.085 4.16869C93.8422 4.58774 93.7035 5.14647 93.7035 5.80996C93.7035 6.43853 93.8769 6.92742 94.2585 7.31154C94.6054 7.69567 95.091 8.00996 95.6807 8.2544C96.2704 8.49885 96.9641 8.70837 97.7273 8.84805C98.4904 8.98774 99.2535 9.16234 100.051 9.37186C100.849 9.54647 101.612 9.79091 102.375 10.0354C103.139 10.2798 103.798 10.629 104.422 11.0481C105.012 11.4671 105.497 12.0258 105.844 12.6544C106.191 13.283 106.399 14.1211 106.399 15.0988C106.399 16.1465 106.156 17.0544 105.705 17.8227C105.22 18.5909 104.63 19.1846 103.902 19.6734C103.173 20.1623 102.341 20.4766 101.439 20.6861C100.537 20.8957 99.6351 21.0004 98.6985 21.0004C97.5885 21.0004 96.5479 20.8607 95.5766 20.5814C94.6053 20.302 93.7382 19.883 92.975 19.3242C92.2119 18.7655 91.6222 18.0322 91.206 17.1592C90.7897 16.2861 90.5469 15.2385 90.5469 14.0163H93.0444C93.0444 14.8544 93.2178 15.5877 93.53 16.1814C93.8422 16.775 94.2932 17.2988 94.8135 17.683C95.3338 18.0671 95.9582 18.3465 96.6519 18.556C97.3457 18.7306 98.0741 18.8354 98.8026 18.8354C99.3923 18.8354 99.982 18.7655 100.572 18.6608C101.161 18.556 101.716 18.3465 102.202 18.102C102.688 17.8227 103.069 17.4734 103.347 16.9846C103.659 16.5306 103.798 15.9369 103.798 15.2036C103.798 14.5052 103.624 13.9465 103.243 13.5274C102.896 13.1084 102.41 12.7592 101.82 12.4798C101.231 12.2004 100.537 11.9909 99.7738 11.8163C99.0107 11.6417 98.2476 11.4671 97.4498 11.2925C96.6519 11.1179 95.8888 10.9084 95.1257 10.6639C94.3625 10.4195 93.7035 10.1401 93.0791 9.75599C92.4894 9.37186 92.0038 8.88297 91.6569 8.28932C91.31 7.69567 91.1019 6.92742 91.1019 6.01948C91.1019 5.00678 91.31 4.13377 91.7263 3.43535C92.1425 2.70202 92.6628 2.10837 93.3566 1.61948C94.0157 1.13059 94.7788 0.781386 95.646 0.571863C96.5132 0.327418 97.3804 0.222656 98.2823 0.222656C99.2882 0.222656 100.225 0.327418 101.092 0.571863C101.959 0.816307 102.722 1.20043 103.381 1.72424C104.04 2.24805 104.561 2.91154 104.942 3.6798C105.324 4.44805 105.532 5.42583 105.567 6.50837H103.069C102.896 5.0417 102.375 3.99408 101.508 3.36551Z" fill="#353535"/>
<path d="M108.827 10.3849C109.14 9.47698 109.556 8.6738 110.146 7.97539C110.735 7.3119 111.464 6.75317 112.331 6.36904C113.198 5.98491 114.204 5.77539 115.314 5.77539C116.424 5.77539 117.465 5.98491 118.297 6.36904C119.164 6.75317 119.893 7.27698 120.483 7.97539C121.072 8.63888 121.523 9.44206 121.801 10.3849C122.113 11.2929 122.252 12.3055 122.252 13.3532C122.252 14.4008 122.113 15.3786 121.801 16.2865C121.488 17.1944 121.072 17.9976 120.483 18.6611C119.893 19.3246 119.164 19.8833 118.297 20.2325C117.43 20.6167 116.424 20.7913 115.314 20.7913C114.204 20.7913 113.198 20.6167 112.331 20.2325C111.464 19.8484 110.735 19.3246 110.146 18.6611C109.556 17.9976 109.105 17.1944 108.827 16.2865C108.515 15.3786 108.376 14.4008 108.376 13.3532C108.376 12.2706 108.515 11.2929 108.827 10.3849ZM111.186 15.6579C111.429 16.3214 111.741 16.9151 112.157 17.369C112.574 17.823 113.025 18.1722 113.58 18.4167C114.135 18.6611 114.69 18.7659 115.314 18.7659C115.938 18.7659 116.493 18.6611 117.048 18.4167C117.603 18.1722 118.054 17.823 118.471 17.369C118.887 16.9151 119.199 16.3563 119.442 15.6579C119.685 14.9944 119.789 14.1913 119.789 13.3182C119.789 12.4452 119.685 11.677 119.442 10.9786C119.199 10.3151 118.887 9.72142 118.471 9.26745C118.054 8.81349 117.603 8.46428 117.048 8.21983C116.493 7.97539 115.938 7.87063 115.314 7.87063C114.69 7.87063 114.135 7.97539 113.58 8.21983C113.025 8.46428 112.574 8.81349 112.157 9.26745C111.741 9.72142 111.429 10.3151 111.186 10.9786C110.943 11.6421 110.839 12.4452 110.839 13.3182C110.839 14.2262 110.978 14.9944 111.186 15.6579Z" fill="#353535"/>
<path d="M127.49 0.641602V20.5114H125.131V0.641602H127.49Z" fill="#353535"/>
<path d="M140.775 20.5113V18.2415H140.706C140.22 19.1494 139.561 19.778 138.798 20.197C138.035 20.6161 137.098 20.8256 136.058 20.8256C135.121 20.8256 134.323 20.6859 133.699 20.4415C133.074 20.197 132.554 19.8478 132.172 19.3589C131.791 18.905 131.513 18.3462 131.375 17.7177C131.236 17.0891 131.132 16.3558 131.132 15.5875V6.12402H133.491V15.8669C133.491 16.7748 133.733 17.4732 134.254 17.997C134.774 18.5208 135.468 18.7653 136.37 18.7653C137.098 18.7653 137.723 18.6605 138.243 18.4161C138.763 18.2066 139.214 17.8923 139.561 17.4732C139.908 17.0542 140.185 16.6002 140.359 16.0415C140.532 15.4828 140.636 14.8891 140.636 14.2605V6.12402H142.995V20.5113H140.775Z" fill="#353535"/>
<path d="M152.638 6.12434V8.21958H149.794V17.1593C149.794 17.4386 149.828 17.6482 149.863 17.8228C149.898 17.9974 150.002 18.137 150.141 18.2069C150.279 18.3116 150.453 18.3466 150.696 18.3815C150.938 18.4164 151.216 18.4164 151.597 18.4164H152.673V20.5116H150.869C150.245 20.5116 149.724 20.4767 149.308 20.372C148.892 20.3021 148.51 20.1275 148.267 19.918C147.99 19.7085 147.817 19.3942 147.678 18.9751C147.539 18.5561 147.47 18.0323 147.47 17.3688V8.21958H145.042V6.12434H147.47V1.8291H149.828V6.15926L152.638 6.12434Z" fill="#353535"/>
<path d="M155.378 3.54001V0.641602H157.737V3.54001H155.378ZM157.703 6.12414V20.5114H155.344V6.12414H157.703Z" fill="#353535"/>
<path d="M161.032 10.3849C161.345 9.47698 161.761 8.6738 162.351 7.97539C162.94 7.3119 163.669 6.75317 164.536 6.36904C165.403 5.98491 166.409 5.77539 167.519 5.77539C168.629 5.77539 169.67 5.98491 170.502 6.36904C171.369 6.75317 172.098 7.27698 172.688 7.97539C173.277 8.63888 173.728 9.44206 174.006 10.3849C174.318 11.2929 174.457 12.3055 174.457 13.3532C174.457 14.4008 174.318 15.3786 174.006 16.2865C173.694 17.1944 173.277 17.9976 172.688 18.6611C172.098 19.3246 171.369 19.8833 170.502 20.2325C169.635 20.6167 168.629 20.7913 167.519 20.7913C166.374 20.7913 165.403 20.6167 164.536 20.2325C163.669 19.8484 162.94 19.3246 162.351 18.6611C161.761 17.9976 161.31 17.1944 161.032 16.2865C160.72 15.3786 160.582 14.4008 160.582 13.3532C160.582 12.2706 160.755 11.2929 161.032 10.3849ZM163.426 15.6579C163.669 16.3214 163.981 16.9151 164.397 17.369C164.813 17.823 165.264 18.1722 165.819 18.4167C166.374 18.6611 166.929 18.7659 167.554 18.7659C168.143 18.7659 168.733 18.6611 169.288 18.4167C169.843 18.1722 170.294 17.823 170.71 17.369C171.127 16.9151 171.439 16.3563 171.682 15.6579C171.924 14.9944 172.029 14.1913 172.029 13.3182C172.029 12.4452 171.924 11.677 171.682 10.9786C171.439 10.2802 171.127 9.72142 170.71 9.26745C170.294 8.81349 169.843 8.46428 169.288 8.21983C168.733 7.97539 168.178 7.87063 167.554 7.87063C166.964 7.87063 166.374 7.97539 165.819 8.21983C165.264 8.46428 164.813 8.81349 164.397 9.26745C163.981 9.72142 163.669 10.3151 163.426 10.9786C163.183 11.6421 163.079 12.4452 163.079 13.3182C163.079 14.2262 163.183 14.9944 163.426 15.6579Z" fill="#353535"/>
<path d="M179.452 6.1246V8.39444H179.521C180.493 6.64841 182.054 5.77539 184.17 5.77539C185.106 5.77539 185.904 5.91507 186.528 6.15952C187.153 6.40396 187.673 6.78809 188.055 7.24206C188.436 7.69603 188.714 8.25476 188.852 8.88333C188.991 9.5119 189.095 10.2452 189.095 11.0135V20.477H186.702V10.769C186.702 9.86111 186.459 9.16269 185.939 8.63888C185.418 8.11507 184.725 7.87063 183.823 7.87063C183.094 7.87063 182.47 7.97539 181.949 8.21983C181.429 8.42936 180.978 8.74364 180.631 9.16269C180.284 9.58174 180.007 10.0357 179.834 10.5944C179.66 11.1532 179.556 11.7468 179.556 12.3754V20.5119H177.197V6.1246H179.452Z" fill="#353535"/>
<path d="M194.402 17.2992C194.611 17.6484 194.923 17.9627 195.27 18.1722C195.617 18.3817 196.033 18.5214 196.484 18.6262C196.935 18.7309 197.386 18.7659 197.871 18.7659C198.253 18.7659 198.634 18.7309 199.016 18.696C199.398 18.6611 199.779 18.5563 200.126 18.3817C200.473 18.2071 200.75 18.0325 200.958 17.7182C201.167 17.404 201.305 17.0548 201.305 16.6008C201.305 15.9722 201.063 15.5182 200.612 15.204C200.161 14.8897 199.571 14.6452 198.877 14.4357C198.183 14.2262 197.42 14.0516 196.622 13.9119C195.825 13.7722 195.062 13.5278 194.368 13.2484C193.674 12.969 193.084 12.55 192.633 12.0262C192.182 11.5024 191.94 10.769 191.94 9.8611C191.94 9.12777 192.113 8.4992 192.425 8.01031C192.737 7.52142 193.154 7.06745 193.674 6.75317C194.194 6.43888 194.749 6.19444 195.374 6.01984C195.998 5.88015 196.622 5.77539 197.282 5.77539C198.079 5.77539 198.843 5.84523 199.536 5.98491C200.23 6.1246 200.82 6.36904 201.34 6.71825C201.86 7.06745 202.277 7.52142 202.589 8.11507C202.901 8.70872 203.074 9.44206 203.144 10.3151H200.785C200.75 9.86111 200.646 9.47698 200.438 9.16269C200.23 8.84841 199.987 8.60396 199.675 8.42936C199.363 8.25476 199.016 8.11507 198.634 8.01031C198.253 7.94047 197.871 7.87063 197.49 7.87063C197.143 7.87063 196.796 7.90555 196.414 7.94047C196.067 8.01031 195.721 8.08015 195.443 8.21983C195.131 8.35952 194.923 8.53412 194.715 8.77857C194.541 9.02301 194.437 9.30237 194.437 9.6865C194.437 10.1055 194.576 10.4198 194.853 10.6992C195.131 10.9786 195.512 11.1881 195.963 11.3627C196.414 11.5373 196.9 11.677 197.455 11.8167C198.01 11.9214 198.565 12.0611 199.12 12.2008C199.71 12.3405 200.299 12.4802 200.854 12.6897C201.409 12.8643 201.93 13.1087 202.346 13.423C202.762 13.7373 203.144 14.1214 203.387 14.5754C203.664 15.0294 203.803 15.623 203.803 16.2865C203.803 17.1595 203.629 17.8929 203.248 18.4516C202.901 19.0103 202.415 19.4992 201.826 19.8484C201.236 20.1976 200.577 20.4421 199.848 20.5817C199.12 20.7214 198.392 20.7913 197.663 20.7913C196.865 20.7913 196.102 20.7214 195.408 20.5468C194.68 20.3722 194.056 20.0929 193.501 19.7436C192.946 19.3595 192.495 18.8706 192.182 18.2421C191.836 17.6135 191.662 16.8802 191.627 15.9722H193.986C194.056 16.496 194.194 16.95 194.402 17.2992Z" fill="#353535"/>
<path d="M52.8413 26.5527V30.6035H52.876C53.0841 30.1845 53.431 29.8353 53.882 29.6607C54.3329 29.4861 54.8185 29.3813 55.3735 29.3813C55.9632 29.3813 56.4835 29.4861 56.9345 29.7305C57.3854 29.94 57.767 30.2543 58.0445 30.6384C58.3567 31.0226 58.5648 31.4416 58.7036 31.9654C58.8423 32.4543 58.9464 32.9781 58.9464 33.5369C58.9464 34.0956 58.877 34.6194 58.7383 35.1083C58.5995 35.5972 58.3567 36.0511 58.0792 36.4004C57.767 36.7845 57.4201 37.0638 56.9692 37.2734C56.5182 37.4829 55.9979 37.5877 55.4082 37.5877C55.2001 37.5877 54.992 37.5527 54.7838 37.5178C54.541 37.4829 54.2982 37.413 54.0901 37.3083C53.8473 37.2035 53.6391 37.0988 53.431 36.9242C53.2229 36.7496 53.0495 36.575 52.9107 36.3305H52.8066V37.3781H51.5232V26.5527H52.8413ZM57.4201 32.3146C57.3161 31.9654 57.1773 31.6511 56.9692 31.3718C56.7611 31.0924 56.5182 30.8829 56.206 30.7083C55.8939 30.5337 55.547 30.4638 55.1307 30.4638C54.7145 30.4638 54.3329 30.5337 54.0207 30.7083C53.7085 30.8829 53.4657 31.0924 53.2923 31.3718C53.0841 31.6511 52.9801 31.9654 52.876 32.3146C52.8066 32.6638 52.7373 33.0131 52.7373 33.3972C52.7373 33.7813 52.772 34.1654 52.876 34.5146C52.9801 34.8638 53.1188 35.1781 53.2923 35.4575C53.4657 35.7369 53.7432 35.9464 54.0554 36.121C54.3676 36.2956 54.7492 36.3654 55.2001 36.3654C55.651 36.3654 55.9979 36.2956 56.3101 36.121C56.6223 35.9464 56.8304 35.7369 57.0386 35.4575C57.2467 35.1781 57.3507 34.8638 57.4201 34.4797C57.4895 34.1305 57.5242 33.7464 57.5242 33.3623C57.5589 33.0131 57.5242 32.6638 57.4201 32.3146Z" fill="#353535"/>
<path d="M63.4905 38.4255C63.3518 38.8096 63.1783 39.1239 63.0396 39.4033C62.9008 39.6826 62.7274 39.8922 62.5539 40.0319C62.3805 40.1715 62.1724 40.3112 61.9642 40.3811C61.7561 40.4509 61.5133 40.4858 61.2358 40.4858C61.097 40.4858 60.9236 40.4858 60.7849 40.4509C60.6461 40.416 60.4727 40.3811 60.3339 40.3461V39.1588C60.438 39.1938 60.5767 39.2636 60.7155 39.2985C60.8542 39.3334 60.993 39.3684 61.097 39.3684C61.3745 39.3684 61.5827 39.2985 61.7561 39.1938C61.9296 39.0541 62.0683 38.8795 62.1724 38.6699L62.6927 37.343L59.6055 29.5557H61.0624L63.3171 35.9461H63.3517L65.5371 29.5557H66.8899L63.4905 38.4255Z" fill="#353535"/>
<path d="M78.8224 28.0891C78.2674 27.7049 77.643 27.4954 76.8799 27.4954C76.2555 27.4954 75.7005 27.6002 75.2149 27.8446C74.7639 28.0891 74.3824 28.4034 74.0702 28.8224C73.758 29.2415 73.5499 29.6954 73.4111 30.2192C73.2724 30.743 73.203 31.3018 73.203 31.8605C73.203 32.4891 73.2724 33.0478 73.4111 33.6065C73.5499 34.1653 73.758 34.6192 74.0702 35.0383C74.3824 35.4573 74.7292 35.7716 75.2149 36.0161C75.6658 36.2605 76.2208 36.3653 76.8799 36.3653C77.3655 36.3653 77.7818 36.2954 78.1286 36.1208C78.4755 35.9811 78.8224 35.7367 79.0652 35.4573C79.3427 35.178 79.5508 34.8637 79.6896 34.4796C79.8284 34.0954 79.9324 33.6764 79.9671 33.2224H81.3893C81.2505 34.5843 80.7649 35.6319 80.0018 36.4002C79.204 37.1684 78.1286 37.5526 76.7411 37.5526C75.9086 37.5526 75.1802 37.4129 74.5558 37.1335C73.9314 36.8542 73.4111 36.4351 72.9949 35.9462C72.5786 35.4573 72.2664 34.8637 72.0583 34.1653C71.8502 33.4669 71.7461 32.7335 71.7461 31.9653C71.7461 31.197 71.8502 30.4288 72.093 29.7303C72.3011 29.0319 72.648 28.4383 73.0642 27.9145C73.4805 27.3907 74.0355 27.0065 74.6599 26.6923C75.2842 26.378 76.0127 26.2383 76.8452 26.2383C77.4002 26.2383 77.9205 26.3081 78.4408 26.4827C78.9265 26.6224 79.3774 26.8669 79.7937 27.1462C80.1752 27.4256 80.5221 27.8097 80.7649 28.2288C81.0424 28.6827 81.1812 29.1716 81.2852 29.7653H79.863C79.7243 29.0319 79.3774 28.4732 78.8224 28.0891Z" fill="#353535"/>
<path d="M82.8117 31.8602C82.9851 31.3713 83.2279 30.9174 83.5401 30.5682C83.8523 30.219 84.2685 29.9047 84.7195 29.6951C85.2051 29.4856 85.7254 29.3809 86.3498 29.3809C86.9742 29.3809 87.5292 29.4856 87.9801 29.6951C88.4311 29.9047 88.8473 30.184 89.1595 30.5682C89.4717 30.9523 89.7145 31.3713 89.888 31.8602C90.0614 32.3491 90.1308 32.9078 90.1308 33.4666C90.1308 34.0602 90.0614 34.584 89.888 35.0729C89.7145 35.5618 89.4717 36.0158 89.1595 36.365C88.8473 36.7491 88.4311 37.0285 87.9801 37.238C87.5292 37.4475 86.9742 37.5523 86.3498 37.5523C85.7254 37.5523 85.2051 37.4475 84.7195 37.238C84.2339 37.0285 83.8523 36.7491 83.5401 36.365C83.2279 35.9809 82.9851 35.5618 82.8117 35.0729C82.6382 34.584 82.5688 34.0602 82.5688 33.4666C82.5688 32.8729 82.6382 32.3491 82.8117 31.8602ZM84.0951 34.7237C84.2339 35.1078 84.4073 35.3872 84.6154 35.6317C84.8236 35.8761 85.1011 36.0856 85.3786 36.1904C85.6907 36.3301 86.0029 36.3999 86.3151 36.3999C86.6273 36.3999 86.9742 36.3301 87.2517 36.1904C87.5292 36.0507 87.8067 35.8761 88.0148 35.6317C88.223 35.3872 88.3964 35.0729 88.5351 34.7237C88.6739 34.3745 88.7086 33.9205 88.7086 33.4666C88.7086 32.9777 88.6392 32.5586 88.5351 32.2094C88.4311 31.8602 88.223 31.5459 88.0148 31.2666C87.8067 31.0221 87.5292 30.8126 87.2517 30.6729C86.9742 30.5332 86.6273 30.4634 86.3151 30.4634C86.0029 30.4634 85.6561 30.5332 85.3786 30.6729C85.0664 30.8126 84.8236 30.9872 84.6154 31.2666C84.4073 31.511 84.2339 31.8253 84.0951 32.2094C83.9564 32.5936 83.9217 33.0126 83.9217 33.4666C83.9217 33.9205 83.991 34.3396 84.0951 34.7237Z" fill="#353535"/>
<path d="M90.9981 29.5205H92.6285L94.5016 32.2443L96.4441 29.5205H97.9704L95.2994 33.1173L98.3173 37.3427H96.6869L94.5363 34.0951L92.3857 37.3427H90.8247L93.7385 33.2221L90.9981 29.5205Z" fill="#353535"/>
<path d="M108.272 26.5527L112.47 37.3781H110.874L109.695 34.1305H105.185L103.971 37.3781H102.514L106.677 26.5527H108.272ZM109.278 32.9083L107.475 27.8797H107.44L105.636 32.9083H109.278Z" fill="#353535"/>
<path d="M118.54 37.3779V36.1207H118.505C118.228 36.6096 117.881 36.9588 117.465 37.2033C117.049 37.4477 116.563 37.5525 115.973 37.5525C115.453 37.5525 115.037 37.4826 114.69 37.343C114.343 37.2033 114.065 37.0287 113.857 36.7493C113.649 36.5049 113.51 36.1906 113.406 35.8414C113.337 35.4922 113.268 35.108 113.268 34.689V29.5557H114.551V34.8636C114.551 35.3525 114.69 35.7366 114.967 36.016C115.245 36.2953 115.626 36.435 116.112 36.435C116.494 36.435 116.84 36.3652 117.118 36.2604C117.395 36.1557 117.638 35.9811 117.846 35.7366C118.054 35.5271 118.193 35.2477 118.263 34.9684C118.367 34.6541 118.401 34.3398 118.401 33.9906V29.5557H119.685V37.3779H118.54Z" fill="#353535"/>
<path d="M124.992 29.5203V30.6727H123.431V35.5267C123.431 35.6664 123.431 35.8061 123.466 35.8759C123.501 35.9807 123.535 36.0505 123.605 36.0854C123.674 36.1203 123.778 36.1553 123.882 36.1902C124.021 36.1902 124.16 36.2251 124.368 36.2251H124.957V37.3775H123.986C123.639 37.3775 123.362 37.3426 123.154 37.3076C122.911 37.2727 122.737 37.168 122.564 37.0632C122.425 36.9584 122.321 36.7838 122.252 36.5394C122.182 36.3299 122.148 36.0156 122.148 35.6664V30.6727H120.83V29.5203H122.148V27.1807H123.431V29.5203H124.992Z" fill="#353535"/>
<path d="M126.241 31.8602C126.414 31.3713 126.657 30.9174 126.969 30.5682C127.281 30.219 127.698 29.9047 128.149 29.6951C128.634 29.4856 129.155 29.3809 129.779 29.3809C130.403 29.3809 130.958 29.4856 131.409 29.6951C131.86 29.9047 132.277 30.184 132.589 30.5682C132.901 30.9523 133.144 31.3713 133.317 31.8602C133.491 32.3491 133.56 32.9078 133.56 33.4666C133.56 34.0602 133.491 34.584 133.317 35.0729C133.144 35.5618 132.901 36.0158 132.589 36.365C132.277 36.7491 131.86 37.0285 131.409 37.238C130.958 37.4475 130.403 37.5523 129.779 37.5523C129.155 37.5523 128.634 37.4475 128.149 37.238C127.663 37.0285 127.281 36.7491 126.969 36.365C126.657 35.9809 126.414 35.5618 126.241 35.0729C126.067 34.584 125.998 34.0602 125.998 33.4666C125.998 32.8729 126.067 32.3491 126.241 31.8602ZM127.524 34.7237C127.663 35.1078 127.836 35.3872 128.045 35.6317C128.253 35.8761 128.53 36.0856 128.808 36.1904C129.12 36.3301 129.432 36.3999 129.744 36.3999C130.057 36.3999 130.403 36.3301 130.681 36.1904C130.993 36.0507 131.236 35.8761 131.444 35.6317C131.652 35.3872 131.826 35.0729 131.964 34.7237C132.103 34.3745 132.138 33.9205 132.138 33.4666C132.138 32.9777 132.068 32.5586 131.964 32.2094C131.826 31.8602 131.652 31.5459 131.444 31.2666C131.236 31.0221 130.958 30.8126 130.681 30.6729C130.369 30.5332 130.057 30.4634 129.744 30.4634C129.432 30.4634 129.085 30.5332 128.808 30.6729C128.496 30.8126 128.253 30.9872 128.045 31.2666C127.836 31.511 127.663 31.8253 127.524 32.2094C127.386 32.5936 127.351 33.0126 127.351 33.4666C127.351 33.9205 127.42 34.3396 127.524 34.7237Z" fill="#353535"/>
<path d="M136.265 29.5213V30.6737H136.3C136.89 29.8006 137.722 29.3467 138.798 29.3467C139.283 29.3467 139.699 29.4514 140.116 29.661C140.497 29.8705 140.775 30.2197 140.948 30.6737C141.226 30.2546 141.538 29.9054 141.989 29.6959C142.405 29.4514 142.891 29.3467 143.411 29.3467C143.793 29.3467 144.139 29.3816 144.486 29.4864C144.799 29.5562 145.076 29.6959 145.284 29.9054C145.527 30.08 145.7 30.3245 145.805 30.6038C145.943 30.8832 145.978 31.2324 145.978 31.6514V37.3784H144.694V32.2451C144.694 32.0006 144.66 31.7911 144.625 31.5816C144.59 31.3721 144.521 31.1975 144.382 31.0229C144.278 30.8832 144.105 30.7435 143.931 30.6387C143.723 30.534 143.48 30.4991 143.168 30.4991C142.544 30.4991 142.024 30.6737 141.677 31.0578C141.33 31.4419 141.122 31.8959 141.122 32.5245V37.4133H139.873V32.2451C139.873 32.0006 139.838 31.7562 139.804 31.5467C139.769 31.3372 139.665 31.1626 139.561 30.9879C139.457 30.8483 139.318 30.7086 139.11 30.6387C138.936 30.5689 138.694 30.4991 138.381 30.4991C138 30.4991 137.688 30.5689 137.41 30.7435C137.133 30.9181 136.924 31.0927 136.751 31.3022C136.578 31.5118 136.473 31.7213 136.404 31.9657C136.335 32.2102 136.3 32.3848 136.3 32.5245V37.4133H135.017V29.5213H136.265Z" fill="#353535"/>
<path d="M147.713 31.8602C147.886 31.3713 148.129 30.9174 148.441 30.5682C148.753 30.219 149.169 29.9047 149.62 29.6951C150.106 29.4856 150.626 29.3809 151.251 29.3809C151.875 29.3809 152.43 29.4856 152.881 29.6951C153.332 29.9047 153.748 30.184 154.06 30.5682C154.373 30.9523 154.615 31.3713 154.789 31.8602C154.962 32.3491 155.032 32.9078 155.032 33.4666C155.032 34.0602 154.962 34.584 154.789 35.0729C154.615 35.5618 154.373 36.0158 154.06 36.365C153.748 36.7491 153.332 37.0285 152.881 37.238C152.43 37.4475 151.875 37.5523 151.251 37.5523C150.626 37.5523 150.106 37.4475 149.62 37.238C149.135 37.0285 148.753 36.7491 148.441 36.365C148.129 35.9809 147.886 35.5618 147.713 35.0729C147.539 34.584 147.47 34.0602 147.47 33.4666C147.47 32.8729 147.539 32.3491 147.713 31.8602ZM148.996 34.7237C149.135 35.1078 149.308 35.3872 149.516 35.6317C149.724 35.8761 150.002 36.0856 150.279 36.1904C150.592 36.3301 150.904 36.3999 151.216 36.3999C151.563 36.3999 151.875 36.3301 152.153 36.1904C152.43 36.0507 152.708 35.8761 152.916 35.6317C153.124 35.3872 153.297 35.0729 153.436 34.7237C153.575 34.3745 153.609 33.9205 153.609 33.4666C153.609 32.9777 153.54 32.5586 153.436 32.2094C153.297 31.8602 153.124 31.5459 152.916 31.2666C152.708 31.0221 152.43 30.8126 152.153 30.6729C151.875 30.5332 151.528 30.4634 151.216 30.4634C150.869 30.4634 150.557 30.5332 150.279 30.6729C150.002 30.8126 149.724 30.9872 149.516 31.2666C149.308 31.511 149.135 31.8253 148.996 32.2094C148.857 32.5936 148.823 33.0126 148.823 33.4666C148.823 33.9205 148.892 34.3396 148.996 34.7237Z" fill="#353535"/>
<path d="M159.819 29.5203V30.6727H158.258V35.5267C158.258 35.6664 158.258 35.8061 158.293 35.8759C158.327 35.9807 158.362 36.0505 158.431 36.0854C158.501 36.1203 158.605 36.1553 158.709 36.1902C158.848 36.1902 158.986 36.2251 159.194 36.2251H159.784V37.3775H158.813C158.466 37.3775 158.188 37.3426 157.98 37.3076C157.738 37.2727 157.564 37.168 157.391 37.0632C157.252 36.9584 157.148 36.7838 157.078 36.5394C157.009 36.3299 156.974 36.0156 156.974 35.6664V30.6727H155.656V29.5203H156.974V27.1807H158.258V29.5203H159.819Z" fill="#353535"/>
<path d="M161.31 28.1242V26.5527H162.594V28.1242H161.31ZM162.594 29.5559V37.3781H161.31V29.5559H162.594Z" fill="#353535"/>
<path d="M166.721 37.3779L163.842 29.5557H165.264L167.45 36.0858H167.485L169.6 29.5557H170.953L168.109 37.3779H166.721Z" fill="#353535"/>
<path d="M177.613 36.8546C177.024 37.3086 176.295 37.5181 175.428 37.5181C174.804 37.5181 174.283 37.4133 173.798 37.2038C173.347 36.9943 172.965 36.7149 172.653 36.3657C172.341 36.0165 172.098 35.5626 171.959 35.0737C171.82 34.5848 171.716 34.026 171.682 33.4324C171.682 32.8387 171.786 32.28 171.959 31.7911C172.133 31.3022 172.41 30.8832 172.722 30.4991C173.034 30.1499 173.416 29.8705 173.867 29.661C174.318 29.4514 174.804 29.3467 175.324 29.3467C176.018 29.3467 176.573 29.4864 177.058 29.7657C177.509 30.0451 177.891 30.4292 178.168 30.8483C178.446 31.3022 178.619 31.7911 178.758 32.3149C178.862 32.8387 178.897 33.3276 178.897 33.8165H173.069C173.069 34.1657 173.104 34.48 173.173 34.7943C173.277 35.1086 173.416 35.388 173.624 35.5975C173.832 35.8419 174.075 36.0165 174.387 36.1562C174.699 36.2959 175.046 36.3657 175.497 36.3657C176.052 36.3657 176.469 36.226 176.815 35.9816C177.162 35.7372 177.405 35.353 177.509 34.8292H178.758C178.55 35.7721 178.203 36.4356 177.613 36.8546ZM177.301 31.826C177.197 31.5467 177.024 31.3372 176.85 31.1276C176.642 30.9181 176.434 30.7784 176.156 30.6737C175.879 30.5689 175.601 30.4991 175.289 30.4991C174.977 30.4991 174.665 30.5689 174.387 30.6737C174.11 30.7784 173.902 30.953 173.694 31.1626C173.485 31.3721 173.347 31.6165 173.243 31.861C173.139 32.1403 173.069 32.4197 173.034 32.6991H177.509C177.475 32.3848 177.405 32.1054 177.301 31.826Z" fill="#353535"/>
<path d="M19.8533 0.641602C8.92669 0.641602 0.0812988 9.58128 0.0812988 20.5813C0.0812988 31.5813 8.92669 40.521 19.888 40.521C30.8494 40.521 39.6948 31.6162 39.6948 20.5813C39.6948 9.54636 30.78 0.641602 19.8533 0.641602ZM19.8533 6.99716C21.7612 6.99716 23.2874 8.49874 23.2874 10.4543C23.2874 12.4099 21.7265 13.9464 19.8533 13.9464C17.9802 13.9464 16.4193 12.3051 16.4193 10.4543C16.4193 8.60351 17.9802 6.99716 19.8533 6.99716ZM26.6522 17.9622C25.4034 22.7813 23.5996 27.8448 21.3449 33.1178C20.7552 34.5146 18.9515 34.5146 18.3618 33.1178C16.1071 27.8797 14.3033 22.8162 13.0892 17.9972C12.777 16.8448 13.5749 15.6924 14.6849 15.6924H25.0565C26.1665 15.6575 26.9643 16.8099 26.6522 17.9622Z" fill="#1D3E74"/>
</g>
<defs>
<clipPath id="clip0_15898_33285">
<rect width="204" height="41" fill="white"/>
</clipPath>
</defs>
</svg>
