<svg width="206" height="47" viewBox="0 0 206 47" fill="none" xmlns="http://www.w3.org/2000/svg">
<g clip-path="url(#clip0_15898_33340)">
<path d="M60.5049 6.68652H63.9638L67.8999 12.451L71.9949 6.68652H75.2153L69.5697 14.2925L75.8911 23.1795H72.4322L67.8601 16.3341L63.288 23.1795H60.0278L66.1903 14.5327L60.5049 6.68652Z" fill="#1D1D1B"/>
<path d="M85.1942 6.68656V9.08844H81.9341V19.3365C81.9341 19.6567 81.9739 19.8969 82.0136 20.0971C82.0534 20.2972 82.1727 20.4574 82.3317 20.5374C82.4907 20.6575 82.6895 20.6975 82.9678 20.7376C83.2461 20.7776 83.5642 20.7776 84.0015 20.7776H85.234V23.1795H83.1666C82.451 23.1795 81.8546 23.1395 81.3775 23.0194C80.8606 22.9393 80.4631 22.7391 80.1848 22.499C79.8667 22.2588 79.6679 21.8985 79.5089 21.4181C79.3499 20.9377 79.2703 20.3373 79.2703 19.5767V9.08844H76.4873V6.68656H79.2703V1.7627H81.9739V6.72659L85.1942 6.68656Z" fill="#1D1D1B"/>
<path d="M88.3354 3.72397V0.401367H91.039V3.72397H88.3354ZM91.039 6.6863V23.1792H88.3354V6.6863H91.039Z" fill="#1D1D1B"/>
<path d="M97.7579 6.68646V9.12837H97.8374C99.0699 7.24689 100.819 6.32617 103.125 6.32617C104.159 6.32617 105.073 6.52633 105.868 6.96667C106.664 7.40702 107.26 8.12758 107.618 9.12837C108.174 8.24768 108.89 7.52711 109.804 7.04674C110.719 6.56636 111.673 6.32617 112.747 6.32617C113.581 6.32617 114.297 6.40623 114.973 6.60639C115.649 6.80655 116.205 7.08677 116.683 7.44705C117.16 7.84737 117.517 8.32774 117.796 8.92821C118.074 9.52868 118.193 10.2492 118.193 11.1299V23.2194H115.49V12.4109C115.49 11.8905 115.45 11.4102 115.371 10.9698C115.291 10.5295 115.132 10.1292 114.893 9.8089C114.655 9.48865 114.337 9.20843 113.939 9.00828C113.542 8.80812 112.985 8.72806 112.349 8.72806C111.037 8.72806 109.963 9.12837 109.208 9.88897C108.453 10.6496 108.055 11.6904 108.055 12.9714V23.2595H105.352V12.451C105.352 11.9306 105.312 11.4102 105.193 10.9698C105.113 10.5295 104.914 10.1292 104.715 9.8089C104.477 9.48865 104.159 9.20843 103.801 9.04831C103.403 8.88818 102.926 8.76809 102.29 8.76809C101.495 8.76809 100.819 8.92821 100.263 9.24846C99.706 9.56872 99.2289 9.96903 98.9108 10.4094C98.553 10.8497 98.3145 11.3301 98.1554 11.8105C97.9964 12.2908 97.9169 12.6912 97.9169 13.0114V23.2995H95.2134V6.68646H97.7579Z" fill="#1D1D1B"/>
<path d="M133.858 22.1386C132.625 23.0593 131.075 23.5397 129.246 23.5397C127.934 23.5397 126.821 23.3395 125.827 22.8992C124.873 22.4588 124.038 21.8583 123.402 21.0977C122.766 20.3371 122.249 19.4164 121.931 18.3356C121.613 17.2547 121.414 16.1338 121.374 14.8528C121.374 13.6119 121.573 12.451 121.931 11.4101C122.288 10.3693 122.845 9.44861 123.521 8.68801C124.197 7.92741 125.032 7.32694 125.946 6.8866C126.9 6.44625 127.934 6.24609 129.047 6.24609C130.518 6.24609 131.711 6.56634 132.665 7.16682C133.619 7.76729 134.415 8.52788 134.971 9.48864C135.528 10.4494 135.965 11.4502 136.164 12.5711C136.363 13.6919 136.482 14.7327 136.442 15.7335H124.237C124.197 16.4541 124.316 17.1346 124.475 17.7751C124.674 18.4156 124.992 19.0161 125.39 19.4965C125.827 20.0169 126.344 20.3772 127.02 20.6974C127.656 20.9776 128.451 21.1378 129.326 21.1378C130.479 21.1378 131.393 20.8576 132.148 20.3371C132.864 19.8167 133.341 19.0161 133.58 17.8952H136.243C135.886 19.8167 135.09 21.2178 133.858 22.1386ZM133.182 11.5302C132.944 10.9698 132.625 10.4494 132.188 10.0491C131.751 9.64876 131.274 9.28848 130.717 9.04829C130.16 8.8081 129.524 8.68801 128.848 8.68801C128.173 8.68801 127.536 8.8081 126.98 9.04829C126.423 9.28848 125.946 9.60873 125.549 10.0491C125.151 10.4894 124.833 10.9698 124.594 11.5302C124.356 12.0907 124.237 12.6911 124.197 13.3317H133.619C133.58 12.7312 133.421 12.1307 133.182 11.5302Z" fill="#1D1D1B"/>
<path d="M60.9425 30.2246V34.8282H60.9823C61.2208 34.3478 61.6184 33.9876 62.1352 33.7474C62.6521 33.5072 63.2087 33.4271 63.8448 33.4271C64.5207 33.4271 65.1171 33.5472 65.6339 33.8274C66.1508 34.0676 66.5881 34.4279 66.9062 34.8683C67.264 35.3086 67.5025 35.789 67.6616 36.3494C67.8206 36.9099 67.9399 37.5103 67.9399 38.1508C67.9399 38.7913 67.8603 39.3918 67.7013 39.9522C67.5423 40.5127 67.264 40.9931 66.9459 41.4334C66.5881 41.8737 66.1905 42.194 65.6737 42.4342C65.1568 42.6744 64.5605 42.7945 63.8846 42.7945C63.6858 42.7945 63.4075 42.7544 63.1689 42.7144C62.8906 42.6744 62.6123 42.5943 62.3738 42.4742C62.0955 42.3541 61.8569 42.234 61.6184 42.0339C61.3798 41.8737 61.1811 41.6336 61.022 41.3533H60.9823V42.5543H59.5112V30.2246H60.9425ZM66.1905 36.7898C66.0712 36.3894 65.9122 36.0292 65.6737 35.7089C65.4351 35.3887 65.1568 35.1485 64.799 34.9483C64.4412 34.7482 64.0436 34.6681 63.5665 34.6681C63.0894 34.6681 62.6521 34.7482 62.2943 34.9483C61.9364 35.1485 61.6581 35.3887 61.4594 35.7089C61.2606 36.0292 61.1015 36.3894 60.9823 36.7898C60.9027 37.1901 60.8232 37.5904 60.8232 38.0307C60.8232 38.4711 60.863 38.9114 60.9823 39.3117C61.1015 39.712 61.2606 40.0723 61.4594 40.3926C61.6979 40.7128 61.9762 40.953 62.334 41.1532C62.6918 41.3533 63.1292 41.4334 63.6063 41.4334C64.0834 41.4334 64.5207 41.3533 64.8785 41.1532C65.2363 40.953 65.4749 40.7128 65.7134 40.3926C65.9122 40.0723 66.0712 39.712 66.1508 39.2717C66.2303 38.8714 66.27 38.431 66.27 37.9907C66.3893 37.6304 66.3098 37.1901 66.1905 36.7898Z" fill="#1D1D1B"/>
<path d="M73.1482 43.7949C72.9891 44.2353 72.7903 44.5956 72.6313 44.9158C72.4723 45.2361 72.2735 45.4762 72.0747 45.6364C71.8759 45.8365 71.6374 45.9566 71.3988 46.0367C71.1603 46.1167 70.882 46.1568 70.5639 46.1568C70.4049 46.1568 70.2061 46.1568 70.0471 46.1167C69.888 46.0767 69.6893 46.0367 69.5302 45.9967V44.6356C69.6495 44.6756 69.8085 44.7557 69.9676 44.7957C70.1266 44.8357 70.2856 44.8758 70.4049 44.8758C70.723 44.8758 70.9615 44.7957 71.1603 44.6756C71.3591 44.5155 71.5181 44.3153 71.6374 44.0751L72.2337 42.554L68.6953 33.627H70.3651L72.9494 40.9527H72.9891L75.4939 33.627H77.0444L73.1482 43.7949Z" fill="#1D1D1B"/>
<path d="M90.721 31.9859C90.0849 31.5456 89.3692 31.3454 88.4946 31.3454C87.7789 31.3454 87.1428 31.4655 86.6259 31.7457C86.1091 32.026 85.6718 32.3862 85.3537 32.8666C84.9959 33.347 84.7573 33.8674 84.5983 34.4679C84.4393 35.0683 84.3598 35.7089 84.3598 36.3494C84.3598 37.0699 84.4393 37.7104 84.5983 38.3509C84.7573 38.9914 84.9959 39.5118 85.3537 39.9922C85.7115 40.4726 86.1091 40.8329 86.6657 41.1131C87.2223 41.3933 87.8187 41.5134 88.5741 41.5134C89.1307 41.5134 89.6078 41.4333 90.0053 41.2332C90.4029 41.0731 90.8005 40.7928 91.0788 40.4726C91.3969 40.1523 91.6354 39.7921 91.7944 39.3517C91.9535 38.9114 92.0727 38.431 92.1125 37.9106H93.7426C93.5835 39.4718 93.0269 40.6727 92.1523 41.5534C91.2776 42.4341 90.0053 42.8344 88.415 42.8344C87.4609 42.8344 86.626 42.6743 85.9103 42.3541C85.1947 42.0338 84.5983 41.5534 84.1212 40.993C83.6441 40.4326 83.2863 39.752 83.0478 38.9514C82.8092 38.1508 82.6899 37.3101 82.6899 36.4294C82.6899 35.5487 82.8092 34.668 83.0875 33.9074C83.3261 33.1068 83.7236 32.4263 84.2007 31.8258C84.6778 31.2253 85.3139 30.785 86.0296 30.4247C86.7452 30.0644 87.5801 29.9043 88.5343 29.9043C89.1704 29.9043 89.7668 29.9844 90.3632 30.1845C90.9198 30.3446 91.4366 30.6249 91.9137 30.9451C92.3908 31.2654 92.7486 31.7057 93.0269 32.1861C93.345 32.7065 93.504 33.2669 93.6233 33.9074H91.9932C91.7547 33.0668 91.3174 32.3862 90.721 31.9859Z" fill="#1D1D1B"/>
<path d="M95.2534 36.269C95.4522 35.7085 95.7305 35.1881 96.0883 34.7878C96.4461 34.3875 96.9232 34.0272 97.4401 33.787C97.9967 33.5469 98.593 33.4268 99.3087 33.4268C100.024 33.4268 100.66 33.5469 101.177 33.787C101.694 34.0272 102.171 34.3475 102.529 34.7878C102.887 35.2282 103.165 35.7085 103.364 36.269C103.563 36.8294 103.642 37.4699 103.642 38.1104C103.642 38.7509 103.563 39.3914 103.364 39.9519C103.165 40.5123 102.887 40.9927 102.529 41.433C102.171 41.8734 101.694 42.1936 101.177 42.4338C100.66 42.674 100.024 42.7941 99.3087 42.7941C98.593 42.7941 97.9967 42.674 97.4401 42.4338C96.8835 42.1936 96.4461 41.8734 96.0883 41.433C95.7305 40.9927 95.4522 40.5123 95.2534 39.9519C95.0546 39.3914 94.9751 38.791 94.9751 38.1104C94.9751 37.4699 95.0944 36.8294 95.2534 36.269ZM96.7642 39.5516C96.9232 39.9919 97.122 40.3122 97.3606 40.5924C97.5991 40.8726 97.9172 41.1128 98.2352 41.2329C98.5931 41.393 98.9509 41.4731 99.3087 41.4731C99.6665 41.4731 100.064 41.393 100.382 41.2329C100.74 41.0728 101.018 40.8726 101.257 40.5924C101.495 40.3122 101.694 39.9519 101.853 39.5516C102.012 39.1512 102.052 38.6308 102.052 38.1104C102.052 37.55 101.972 37.0696 101.853 36.6693C101.694 36.269 101.495 35.9087 101.257 35.5885C101.018 35.3082 100.7 35.068 100.382 34.948C100.024 34.7878 99.6665 34.7078 99.3087 34.7078C98.9509 34.7078 98.5533 34.7878 98.2352 34.948C97.8774 35.1081 97.5991 35.3082 97.3606 35.5885C97.122 35.8687 96.9232 36.229 96.7642 36.6693C96.6052 37.1096 96.5654 37.59 96.5654 38.1104C96.5256 38.6709 96.6052 39.1512 96.7642 39.5516Z" fill="#1D1D1B"/>
<path d="M104.636 33.627H106.505L108.652 36.7494L110.878 33.627H112.627L109.566 37.7502L113.025 42.594H111.117L108.652 38.8711L106.187 42.594H104.397L107.737 37.8703L104.636 33.627Z" fill="#1D1D1B"/>
<path d="M124.435 30.2246L129.246 42.5943H127.417L126.066 38.8714H120.857L119.466 42.5943H117.796L122.567 30.2246H124.435ZM125.588 37.4703L123.521 31.7058H123.481L121.414 37.4703H125.588Z" fill="#1D1D1B"/>
<path d="M136.204 42.594V41.1529H136.164C135.846 41.7133 135.448 42.1136 134.971 42.3938C134.494 42.674 133.938 42.7941 133.262 42.7941C132.665 42.7941 132.188 42.7141 131.791 42.554C131.393 42.3938 131.075 42.1937 130.837 41.8734C130.598 41.5532 130.439 41.2329 130.32 40.8326C130.2 40.4323 130.161 39.9919 130.161 39.5116V33.627H131.632V39.7117C131.632 40.2722 131.791 40.7125 132.109 41.0328C132.427 41.353 132.864 41.5131 133.421 41.5131C133.858 41.5131 134.256 41.4331 134.574 41.313C134.892 41.1929 135.17 40.9927 135.409 40.7125C135.607 40.4723 135.806 40.1521 135.886 39.8318C135.965 39.5116 136.045 39.1113 136.045 38.7109V33.627H137.516V42.594H136.204Z" fill="#1D1D1B"/>
<path d="M143.559 33.6274V34.9084H141.77V40.4728C141.77 40.6329 141.77 40.793 141.809 40.8731C141.849 40.9932 141.889 41.0733 141.968 41.1133C142.048 41.1533 142.167 41.1933 142.287 41.2334C142.446 41.2334 142.605 41.2734 142.843 41.2734H143.519V42.5544H142.406C142.008 42.5544 141.69 42.5144 141.452 42.4744C141.173 42.4343 140.975 42.3142 140.816 42.1941C140.656 42.074 140.537 41.8739 140.458 41.5937C140.378 41.3535 140.338 40.9932 140.338 40.5929V34.9084H138.828V33.6274H140.338V30.9453H141.809V33.6274H143.559Z" fill="#1D1D1B"/>
<path d="M144.99 36.269C145.189 35.7085 145.467 35.1881 145.825 34.7878C146.183 34.3875 146.66 34.0272 147.177 33.787C147.734 33.5469 148.33 33.4268 149.045 33.4268C149.761 33.4268 150.397 33.5469 150.914 33.787C151.431 34.0272 151.908 34.3475 152.266 34.7878C152.624 35.2282 152.902 35.7085 153.101 36.269C153.3 36.8294 153.379 37.4699 153.379 38.1104C153.379 38.7509 153.3 39.3914 153.101 39.9519C152.902 40.5123 152.624 40.9927 152.266 41.433C151.908 41.8734 151.431 42.1936 150.914 42.4338C150.397 42.674 149.761 42.7941 149.045 42.7941C148.33 42.7941 147.734 42.674 147.177 42.4338C146.62 42.1936 146.183 41.8734 145.825 41.433C145.467 40.9927 145.189 40.5123 144.99 39.9519C144.791 39.3914 144.712 38.791 144.712 38.1104C144.712 37.4699 144.791 36.8294 144.99 36.269ZM146.461 39.5516C146.62 39.9919 146.819 40.3122 147.058 40.5924C147.296 40.8726 147.614 41.1128 147.932 41.2329C148.29 41.393 148.648 41.4731 149.006 41.4731C149.364 41.4731 149.761 41.393 150.079 41.2329C150.437 41.0728 150.715 40.8726 150.954 40.5924C151.192 40.3122 151.391 39.9519 151.55 39.5516C151.709 39.1512 151.749 38.6308 151.749 38.1104C151.749 37.55 151.67 37.0696 151.55 36.6693C151.391 36.269 151.192 35.9087 150.954 35.5885C150.715 35.3082 150.397 35.068 150.079 34.948C149.721 34.7878 149.364 34.7078 149.006 34.7078C148.648 34.7078 148.25 34.7878 147.932 34.948C147.574 35.1081 147.296 35.3082 147.058 35.5885C146.819 35.8687 146.62 36.229 146.461 36.6693C146.302 37.1096 146.262 37.59 146.262 38.1104C146.262 38.6709 146.342 39.1512 146.461 39.5516Z" fill="#1D1D1B"/>
<path d="M156.441 33.6269V34.948H156.48C157.156 33.9472 158.11 33.4268 159.343 33.4268C159.899 33.4268 160.377 33.5469 160.854 33.787C161.291 34.0272 161.609 34.4275 161.808 34.948C162.126 34.4676 162.484 34.1073 163.001 33.8271C163.517 33.5469 164.034 33.4268 164.631 33.4268C165.068 33.4268 165.466 33.4668 165.863 33.5869C166.221 33.6669 166.539 33.8271 166.778 34.0673C167.056 34.2674 167.255 34.5476 167.374 34.8679C167.533 35.1881 167.573 35.5885 167.573 36.0688V42.634H166.102V36.7093C166.102 36.4291 166.062 36.1889 166.022 35.9487C165.982 35.7085 165.903 35.5084 165.744 35.3082C165.625 35.1481 165.426 34.988 165.227 34.8679C164.988 34.7478 164.71 34.7078 164.352 34.7078C163.637 34.7078 163.08 34.9079 162.643 35.3483C162.245 35.7486 162.007 36.309 162.007 37.0296V42.5939H160.536V36.7093C160.536 36.4291 160.496 36.1489 160.456 35.9087C160.416 35.6685 160.297 35.4684 160.178 35.2682C160.059 35.1081 159.899 34.948 159.661 34.8679C159.462 34.7878 159.184 34.7078 158.826 34.7078C158.389 34.7078 158.031 34.7878 157.753 34.988C157.434 35.1481 157.196 35.3883 156.997 35.6285C156.798 35.8687 156.679 36.1089 156.6 36.3891C156.52 36.6693 156.48 36.8695 156.48 37.0296V42.5939H155.009V33.6269H156.441Z" fill="#1D1D1B"/>
<path d="M169.561 36.269C169.759 35.7085 170.038 35.1881 170.395 34.7878C170.753 34.3875 171.23 34.0272 171.747 33.787C172.304 33.5469 172.9 33.4268 173.616 33.4268C174.331 33.4268 174.968 33.5469 175.484 33.787C176.001 34.0272 176.478 34.3475 176.836 34.7878C177.194 35.2282 177.472 35.7085 177.671 36.269C177.87 36.8294 177.949 37.4699 177.949 38.1104C177.949 38.7509 177.87 39.3914 177.671 39.9519C177.472 40.5123 177.194 40.9927 176.836 41.433C176.478 41.8734 176.001 42.1936 175.484 42.4338C174.968 42.674 174.331 42.7941 173.616 42.7941C172.9 42.7941 172.304 42.674 171.747 42.4338C171.191 42.1936 170.753 41.8734 170.395 41.433C170.038 40.9927 169.759 40.5123 169.561 39.9519C169.362 39.3914 169.282 38.791 169.282 38.1104C169.282 37.4699 169.362 36.8294 169.561 36.269ZM171.032 39.5516C171.191 39.9919 171.389 40.3122 171.628 40.5924C171.866 40.8726 172.185 41.1128 172.503 41.2329C172.86 41.393 173.218 41.4731 173.576 41.4731C173.934 41.4731 174.331 41.393 174.65 41.2329C175.007 41.0728 175.286 40.8726 175.524 40.5924C175.763 40.3122 175.962 39.9519 176.121 39.5516C176.28 39.1512 176.319 38.6308 176.319 38.1104C176.319 37.55 176.24 37.0696 176.121 36.6693C175.962 36.269 175.763 35.9087 175.524 35.5885C175.286 35.3082 174.968 35.068 174.65 34.948C174.292 34.7878 173.934 34.7078 173.576 34.7078C173.218 34.7078 172.821 34.7878 172.503 34.948C172.145 35.1081 171.866 35.3082 171.628 35.5885C171.389 35.8687 171.191 36.229 171.032 36.6693C170.873 37.1096 170.833 37.59 170.833 38.1104C170.833 38.6709 170.912 39.1512 171.032 39.5516Z" fill="#1D1D1B"/>
<path d="M183.436 33.6274V34.9084H181.647V40.4728C181.647 40.6329 181.647 40.793 181.686 40.8731C181.726 40.9932 181.766 41.0733 181.845 41.1133C181.925 41.1533 182.044 41.1933 182.164 41.2334C182.323 41.2334 182.482 41.2734 182.72 41.2734H183.396V42.5544H182.283C181.885 42.5544 181.567 42.5144 181.329 42.4744C181.05 42.4343 180.852 42.3142 180.692 42.1941C180.533 42.074 180.414 41.8739 180.335 41.5937C180.255 41.3535 180.215 40.9932 180.215 40.5929V34.9084H178.705V33.6274H180.215V30.9453H181.686V33.6274H183.436Z" fill="#1D1D1B"/>
<path d="M185.146 32.026V30.2246H186.617V32.026H185.146ZM186.617 33.6273V42.5943H185.146V33.6273H186.617Z" fill="#1D1D1B"/>
<path d="M191.308 42.594L188.008 33.627H189.638L192.143 41.1128H192.182L194.608 33.627H196.158L192.898 42.594H191.308Z" fill="#1D1D1B"/>
<path d="M203.792 42.0335C203.116 42.5539 202.281 42.7941 201.287 42.7941C200.571 42.7941 199.975 42.674 199.418 42.4338C198.902 42.1936 198.464 41.8734 198.106 41.4731C197.749 41.0728 197.47 40.5523 197.311 39.9919C197.152 39.4315 197.033 38.791 196.993 38.1104C196.993 37.4299 197.112 36.7894 197.311 36.229C197.51 35.6685 197.828 35.1881 198.186 34.7478C198.544 34.3475 198.981 34.0272 199.498 33.787C200.015 33.5469 200.571 33.4268 201.168 33.4268C201.963 33.4268 202.599 33.5869 203.156 33.9071C203.672 34.2274 204.11 34.6677 204.428 35.1481C204.746 35.6685 204.945 36.229 205.064 36.8294C205.183 37.4299 205.223 37.9903 205.223 38.5508H198.544C198.544 38.9511 198.583 39.3114 198.663 39.6717C198.782 40.0319 198.941 40.3522 199.18 40.5924C199.418 40.8726 199.697 41.0728 200.055 41.2329C200.412 41.393 200.81 41.4731 201.327 41.4731C201.963 41.4731 202.44 41.3129 202.838 41.0327C203.235 40.7525 203.474 40.3122 203.633 39.7117H205.064C204.865 40.7525 204.468 41.5131 203.792 42.0335ZM203.434 36.269C203.315 35.9487 203.116 35.7085 202.917 35.4684C202.718 35.2282 202.44 35.068 202.122 34.948C201.804 34.8279 201.486 34.7478 201.128 34.7478C200.77 34.7478 200.412 34.8279 200.094 34.948C199.776 35.068 199.538 35.2682 199.299 35.5084C199.1 35.7486 198.902 36.0288 198.782 36.309C198.663 36.6293 198.583 36.9495 198.544 37.2698H203.672C203.633 36.9095 203.553 36.5892 203.434 36.269Z" fill="#1D1D1B"/>
<path d="M23.0532 0.401367C10.5295 0.401367 0.351562 10.6494 0.351562 23.2593C0.351562 35.8692 10.5295 46.1172 23.0532 46.1172C35.5769 46.1172 45.7548 35.8692 45.7548 23.2593C45.7548 10.6494 35.6166 0.401367 23.0532 0.401367ZM39.0755 25.8213C39.0755 27.3425 38.5984 28.2632 37.4455 29.1039C37.1672 29.304 36.6901 29.5442 36.4118 29.5442C36.0539 29.5042 35.4973 29.304 35.1793 29.1039C34.9805 28.9838 34.7817 28.8637 34.7817 28.7836C34.7817 28.7036 34.9407 28.6635 35.2986 28.5434C36.0937 28.2632 37.366 27.3025 37.366 25.9014V20.7773C37.366 19.2962 36.1335 18.2554 34.4636 18.2554H31.0842C29.5734 18.2554 28.7385 18.5756 28.1422 19.1761L25.2399 22.2185C25.2399 22.2185 28.6193 25.3409 30.1698 26.8221C32.3565 28.8637 33.5095 29.264 34.1853 29.6243C34.5034 29.7844 34.7817 29.7844 34.7817 29.9445C34.7817 30.1047 34.5829 30.0646 33.9865 30.0646H29.0168C26.7507 30.0646 25.3989 28.7436 25.3989 28.7436L22.0592 25.5411L19.316 28.5034C17.6859 30.1047 16.1354 29.9846 14.8234 29.9846H11.5632C8.89946 29.9846 7.07061 28.1031 7.07061 25.8213V20.7373C7.07061 19.2161 7.5477 18.2954 8.70067 17.4547C8.97898 17.2546 9.45607 17.0144 9.73437 17.0144C10.0922 17.0544 10.6488 17.2546 10.9669 17.4547C11.1656 17.5748 11.3644 17.6549 11.3644 17.775C11.3644 17.8551 11.2054 17.8951 10.8476 18.0152C10.0524 18.2954 8.78019 19.2562 8.78019 20.6573V25.7813C8.78019 27.2624 10.0127 28.3032 11.6825 28.3032H15.0619C16.5727 28.3032 17.4076 27.983 18.004 27.3825L20.8665 24.3401C20.8665 24.3401 17.4871 21.1777 15.9366 19.6965C13.7499 17.6549 12.5969 17.2546 11.921 16.8943C11.603 16.7342 11.3247 16.7342 11.3247 16.5741C11.3247 16.4139 11.5235 16.454 12.1198 16.454H17.1691C19.4352 16.454 20.787 17.775 20.787 17.775L24.1266 20.8974L26.8699 17.9351C28.5 16.3339 30.0505 16.454 31.3625 16.454H34.6227C37.2864 16.454 39.1153 18.3354 39.1153 20.6172L39.0755 25.8213Z" fill="#FF821C"/>
</g>
<defs>
<clipPath id="clip0_15898_33340">
<rect width="206" height="47" fill="white"/>
</clipPath>
</defs>
</svg>
